<svg width="50" height="50" fill="none" xmlns="http://www.w3.org/2000/svg" viewBox="0 0 81 82"><path d="M40.5 81a40.5 40.5 0 100-81 40.5 40.5 0 000 81z" fill="#E0E0E0"/><path d="M76 48.3a16.6 16.6 0 00-4.3-4c-.7-.3-1.5-.8-1.6-1.3l-.1-2.4c-.1-2.3-.2-4.4-1.6-6.8-3.2-5.5-7.7-8.4-14.8-9.5a18.4 18.4 0 00-14.8 4c-.4.4-.7.7-.9.7-.2 0-.5-.2-1-.6a22 22 0 00-4.4-2.5c-2.1-.9-4.3-1.4-6.5-1.4a14 14 0 00-3.5.5c-1 .2-1.8.7-2.6 1a12.2 12.2 0 01-2.5 1c-.6 0-1.3-.4-2-.8-.5-.3-.9-.6-1.3-.7a15.4 15.4 0 00-9.2-.8h-.4l-1.4.4c-.6 1.2-1 2.6-1.4 4l.2-.1a29.2 29.2 0 016.3-.5 11.8 11.8 0 018.2 3.5c.4.3.8.5 1.3.5.7 0 1.1-.5 1.5-1l.6-.6c1.9-1.7 4.4-2 6.1-2h1.2c2.7.2 5.4 1.4 7.8 3.4h.1c1 .8 2 1.7 2.7 2.6 0 .2.4.7 1 .7.8 0 1.1-1 1.4-1.7l.1-.3c1.6-3.4 5.6-5.5 10.6-5.5 1.9 0 3.7.3 5.3.8 4.8 1.6 10 5.3 10 11 .1 1.3 0 2.8-.5 4.4-.3 1.3 1.2 1.9 2.2 2.2l.7.3a14 14 0 015.7 5.9c.2.5 1.1 3.2 1.5 7v.8c1.2-2 2.2-4.2 3-6.4-.7-2.2-2-4.7-2.7-5.8z" fill="#87BBF1"/></svg>
