<svg width="44" height="41" viewBox="0 0 44 41" fill="none" xmlns="http://www.w3.org/2000/svg"><path fill="#4294F0" d="M6.6 16.2h5.7v4.4H6.6zM15 16.2h5.7v4.4H15zM23.5 16.2h5.7v4.4h-5.7zM32 16.2h5.7v4.4H32zM6.6 22.7h5.7v4.4H6.6zM15 22.7h5.7v4.4H15zM23.5 22.7h5.7v4.4h-5.7zM32 22.7h5.7v4.4H32zM6.6 29.2h5.7v4.4H6.6zM15 29.2h5.7v4.4H15zM23.5 29.2h5.7v4.4h-5.7zM32 29.2h5.7v4.4H32zM11.8 1.6c0-.8.6-1.4 1.4-1.4.7 0 1.4.6 1.4 1.4v4.6c0 .7-.7 1.4-1.4 1.4-.8 0-1.4-.7-1.4-1.4V1.6zM30.5 1.6c0-.8.6-1.4 1.4-1.4.8 0 1.4.6 1.4 1.4v4.6c0 .7-.6 1.4-1.4 1.4-.8 0-1.4-.7-1.4-1.4V1.6z"/><path fill-rule="evenodd" clip-rule="evenodd" d="M28.5 4.3h-12v1.9a3.4 3.4 0 01-6.7 0v-2H5.5a5 5 0 00-5 5v26.3a5 5 0 005 5h33.2a5 5 0 005-5V9.3a5 5 0 00-5-5h-3.4v1.9a3.4 3.4 0 01-6.8 0v-2zm-26 7.4v23.8a3 3 0 003 3h33.2a3 3 0 003-3V11.7H2.5z" fill="#4294F0"/></svg>
