<svg class="dclogo" width="166" height="29" viewBox="0 0 166 29" fill="none" xmlns="http://www.w3.org/2000/svg">
<path d="M4.60032 17.8458H2.16787V26.2355H4.60032C7.19116 26.2355 8.88312 24.4907 8.88312 22.0586C8.88312 19.6261 7.19116 17.8458 4.60032 17.8458ZM4.60032 28.2096H0V15.8721H4.60032C8.47765 15.8721 11.1568 18.533 11.1568 22.0228C11.1568 25.5129 8.47765 28.2096 4.60032 28.2096Z" fill="#4E4E4E"/>
<path d="M17.9593 20.5779C16.2498 20.5779 15.1572 21.9173 15.1572 23.5571C15.1572 25.2136 16.3382 26.5706 17.9947 26.5706C19.7221 26.5706 20.8148 25.2312 20.8148 23.5918C20.8148 21.9352 19.6337 20.5779 17.9593 20.5779ZM17.9593 28.4213C15.1218 28.4213 13.0243 26.2534 13.0243 23.5918C13.0243 20.913 15.1393 18.7097 17.9947 18.7097C20.8502 18.7097 22.9476 20.8776 22.9476 23.5571C22.9476 26.218 20.8323 28.4213 17.9593 28.4213Z" fill="#4E4E4E"/>
<path d="M29.4154 28.4213C26.6482 28.4213 24.6038 26.2534 24.6038 23.5918C24.6038 20.9301 26.6482 18.7097 29.4329 18.7097C31.1956 18.7097 32.2883 19.3615 33.1518 20.3137L31.83 21.7414C31.1781 21.0535 30.4905 20.5779 29.4154 20.5779C27.8643 20.5779 26.7362 21.9173 26.7362 23.5571C26.7362 25.2312 27.8818 26.5706 29.5212 26.5706C30.5259 26.5706 31.2661 26.0947 31.9358 25.4074L33.2226 26.676C32.3059 27.6983 31.2307 28.4213 29.4154 28.4213Z" fill="#4E4E4E"/>
<path d="M41.2941 18.9038H43.4269V28.2096H41.2941V26.7647C40.6952 27.6457 39.8313 28.4034 38.3861 28.4034C36.2887 28.4034 35.0726 26.9935 35.0726 24.8257V18.9038H37.2051V24.1914C37.2051 25.6363 37.9277 26.4644 39.197 26.4644C40.4306 26.4644 41.2941 25.6012 41.2941 24.1556V18.9038Z" fill="#4E4E4E"/>
<path d="M56.9979 18.7097C59.0246 18.7097 60.2585 19.9965 60.2585 22.2702V28.2096H58.126V22.9217C58.126 21.4414 57.4385 20.6487 56.2399 20.6487C55.0768 20.6487 54.2483 21.4589 54.2483 22.9575V28.2096H52.1155V22.9045C52.1155 21.4589 51.4108 20.6487 50.2298 20.6487C49.0488 20.6487 48.2382 21.5297 48.2382 22.9753V28.2096H46.1054V18.9038H48.2382V20.3137C48.8371 19.4849 49.648 18.7097 51.0757 18.7097C52.4151 18.7097 53.3494 19.3615 53.8429 20.3487C54.6009 19.3615 55.5877 18.7097 56.9979 18.7097Z" fill="#4E4E4E"/>
<path d="M69.2288 22.9046C69.0876 21.5298 68.2766 20.4549 66.8668 20.4549C65.5624 20.4549 64.646 21.459 64.4522 22.9046H69.2288ZM67.1489 26.676C68.1887 26.676 68.9292 26.2885 69.6693 25.5655L70.9208 26.676C70.0397 27.7341 68.8237 28.4213 67.1135 28.4213C64.4172 28.4213 62.3373 26.4644 62.3373 23.5739C62.3373 20.8954 64.2234 18.7097 66.8847 18.7097C69.8456 18.7097 71.3438 21.0363 71.3438 23.733C71.3438 23.9268 71.3262 24.1031 71.3084 24.3148H64.4697C64.7168 25.8301 65.7741 26.676 67.1489 26.676Z" fill="#4E4E4E"/>
<path d="M75.6258 28.2096H73.493V18.9038H75.6258V20.3487C76.2254 19.4674 77.0889 18.7097 78.5342 18.7097C80.6316 18.7097 81.8476 20.1199 81.8476 22.2874V28.2096H79.7148V22.9217C79.7148 21.4768 78.9926 20.6487 77.7232 20.6487C76.4893 20.6487 75.6258 21.5119 75.6258 22.9575V28.2096Z" fill="#4E4E4E"/>
<path d="M86.9939 25.3013C86.9939 26.1301 87.4166 26.4644 88.1392 26.4644C88.6151 26.4644 89.0381 26.3589 89.4611 26.1472V27.8921C88.9323 28.1925 88.3334 28.3684 87.5403 28.3684C85.9713 28.3684 84.8611 27.6812 84.8611 25.6363V20.7363H83.6801V18.9039H84.8611V16.3477H86.9939V18.9039H89.4965V20.7363H86.9939V25.3013Z" fill="#4E4E4E"/>
<path d="M97.6212 28.4213C94.0256 28.4213 91.3465 25.6191 91.3465 22.0586C91.3465 18.5331 93.9727 15.6605 97.7092 15.6605C99.9829 15.6605 101.358 16.4539 102.538 17.5813L101.146 19.1852C100.159 18.2688 99.1015 17.6521 97.6917 17.6521C95.3296 17.6521 93.6202 19.5907 93.6202 22.0228C93.6202 24.4556 95.3296 26.4297 97.6917 26.4297C99.2073 26.4297 100.177 25.8129 101.234 24.8257L102.627 26.2355C101.34 27.5749 99.93 28.4213 97.6212 28.4213Z" fill="#4E4E4E"/>
<path d="M104.776 28.2096V15.3433H106.909V28.2096H104.776Z" fill="#4E4E4E"/>
<path d="M114.117 20.5779C112.407 20.5779 111.314 21.9173 111.314 23.5571C111.314 25.2136 112.495 26.5706 114.152 26.5706C115.879 26.5706 116.972 25.2312 116.972 23.5918C116.972 21.9352 115.791 20.5779 114.117 20.5779ZM114.117 28.4213C111.279 28.4213 109.182 26.2534 109.182 23.5918C109.182 20.913 111.297 18.7097 114.152 18.7097C117.007 18.7097 119.105 20.8776 119.105 23.5571C119.105 26.218 116.99 28.4213 114.117 28.4213Z" fill="#4E4E4E"/>
<path d="M127.388 18.9039H129.521V28.2096H127.388V26.7647C126.789 27.6458 125.925 28.4034 124.48 28.4034C122.383 28.4034 121.167 26.9936 121.167 24.8257V18.9039H123.299V24.1914C123.299 25.6363 124.022 26.4644 125.291 26.4644C126.525 26.4644 127.388 25.6012 127.388 24.1556V18.9039Z" fill="#4E4E4E"/>
<path d="M136.553 20.5604C135.09 20.5604 133.874 21.6885 133.874 23.5571C133.874 25.3896 135.108 26.5531 136.553 26.5531C137.981 26.5531 139.25 25.3717 139.25 23.5571C139.25 21.7414 137.981 20.5604 136.553 20.5604ZM139.215 28.2096V26.6585C138.527 27.6279 137.558 28.4034 136.042 28.4034C133.856 28.4034 131.723 26.6585 131.723 23.5571C131.723 20.4549 133.821 18.7097 136.042 18.7097C137.575 18.7097 138.545 19.4849 139.215 20.3487V15.3433H141.347V28.2096H139.215Z" fill="#4E4E4E"/>
<path d="M145.029 3.12701C143.89 2.80147 142.552 2.67081 141.253 2.59089C140.854 2.56644 140.47 2.55476 140.098 2.55476C136.121 2.56315 133.706 3.86423 132.189 5.16495C130.678 6.46712 130.097 7.82076 130.076 7.87916L129.312 9.82548L127.929 8.24995C127.928 8.24995 127.923 8.24412 127.899 8.21711C127.873 8.18937 127.834 8.14667 127.78 8.08974C127.672 7.97733 127.508 7.80945 127.293 7.60434C126.862 7.19376 126.226 6.63208 125.43 6.04888C123.839 4.87845 121.611 3.64343 119.136 3.28723C118.498 3.19417 117.902 3.1533 117.341 3.1533C112.976 3.14709 110.705 5.65399 110.521 5.85983L110.517 5.86421L109.65 6.92296L108.653 5.98538C108.652 5.98538 108.652 5.98464 108.631 5.9653C108.609 5.94632 108.574 5.91494 108.525 5.87333C108.428 5.79085 108.277 5.66677 108.077 5.51495C107.677 5.21167 107.081 4.80035 106.326 4.38941C104.815 3.56533 102.684 2.75622 100.199 2.75695C100.061 2.75695 99.9208 2.76023 99.7766 2.7657C98.3956 2.8168 97.3497 3.09271 96.5336 3.46315L95.4752 1.13762C96.6128 0.619009 98.0069 0.273033 99.6825 0.21318C99.8555 0.20588 100.027 0.202959 100.199 0.202959C104.606 0.223033 107.913 2.21681 109.452 3.35366C110.732 2.27447 113.357 0.604784 117.341 0.598214C118.025 0.598214 118.748 0.647846 119.505 0.759158C123.696 1.3993 126.938 3.83431 128.606 5.33976C129.014 4.75875 129.578 4.077 130.336 3.39307C132.234 1.67082 135.395 -0.00944957 140.098 3.93665e-05C140.523 3.93665e-05 140.961 0.0131843 141.412 0.0412849C142.815 0.128876 144.283 0.303689 145.658 0.651496C145.77 0.70551 151.902 2.2095 155.507 7.26894C157.474 10.0627 158.023 12.7707 158.018 14.8134C158.017 15.8772 157.876 16.7623 157.722 17.4126C159.497 18.3064 162.959 20.4867 164.928 24.7151C165.631 26.2392 165.95 27.6399 166 28.8895V28.8902L163.447 28.9935C163.41 28.0983 163.185 27.0395 162.608 25.783C160.6 21.3564 156.211 19.4845 155.763 19.3228C155.734 19.3119 155.733 19.3111 155.733 19.3111L154.447 18.8444L154.999 17.5998H154.998C154.998 17.5998 154.998 17.5998 154.998 17.5998C154.999 17.5973 155.002 17.59 155.007 17.5783C155.017 17.5542 155.032 17.5126 155.053 17.4531C155.095 17.3356 155.154 17.1495 155.215 16.905C155.338 16.4159 155.464 15.6944 155.463 14.8134C155.459 13.2068 155.061 11.0864 153.416 8.73718C150.924 5.1405 146.087 3.4292 145.029 3.12701Z" fill="#4294F0"/>
</svg>
