<svg width="145" height="145" viewBox="0 0 145 145" fill="none" xmlns="http://www.w3.org/2000/svg">
<rect x="38.2148" y="6.68384" width="105.024" height="136.501" rx="7" fill="#ACC8E8"/>
<rect x="38.2148" y="6.68384" width="105.024" height="136.501" rx="7" stroke="#1368C7" stroke-width="2"/>
<rect x="38.2148" y="6.68384" width="105.024" height="136.501" rx="7" stroke="#1368C7" stroke-width="2"/>
<rect x="33.0371" y="1.15308" width="107.024" height="138.501" rx="8" fill="#E0EFFF"/>
<path d="M33.0371 25.2571V9.15307C33.0371 4.73479 36.6188 1.15308 41.0371 1.15308H132.061C136.479 1.15308 140.061 4.7348 140.061 9.15308V131.654C140.061 136.072 136.479 139.654 132.061 139.654H41.0371C36.6188 139.654 33.0371 136.072 33.0371 131.654V66.9207" stroke="#1368C7" stroke-width="2" stroke-linecap="round" stroke-linejoin="round"/>
<rect x="65.0293" y="30.578" width="30.6288" height="63.9854" rx="7" transform="rotate(90 65.0293 30.578)" fill="#4294F0"/>
<rect x="65.0293" y="30.578" width="30.6288" height="63.9854" rx="7" transform="rotate(90 65.0293 30.578)" stroke="#1368C7" stroke-width="2"/>
<rect x="65.0293" y="30.578" width="30.6288" height="63.9854" rx="7" transform="rotate(90 65.0293 30.578)" stroke="#1368C7" stroke-width="2"/>
<path d="M21.7555 40.9213H16.7115V52.5742H19.4083V49.3614H21.7555C24.8685 49.3614 26.8162 47.7466 26.8162 45.1497C26.8162 42.5361 24.8685 40.9213 21.7555 40.9213ZM21.6057 47.164H19.4083V43.1187H21.6057C23.2537 43.1187 24.0861 43.8679 24.0861 45.1497C24.0861 46.4148 23.2537 47.164 21.6057 47.164ZM28.7415 52.5742H34.0353C37.8474 52.5742 40.461 50.2769 40.461 46.7478C40.461 43.2186 37.8474 40.9213 34.0353 40.9213H28.7415V52.5742ZM31.4383 50.3602V43.1354H33.9021C36.216 43.1354 37.7309 44.5171 37.7309 46.7478C37.7309 48.9785 36.216 50.3602 33.9021 50.3602H31.4383ZM51.301 43.0854V40.9213H42.4948V52.5742H45.1916V48.3292H50.5852V46.1651H45.1916V43.0854H51.301Z" fill="white"/>
<path d="M51.7451 16.6378L119.196 16.6378" stroke="#AAC9F6" stroke-width="4" stroke-linecap="round" stroke-linejoin="round"/>
<path d="M77.2158 37.6881L120.629 37.6881" stroke="#AAC9F6" stroke-width="4" stroke-linecap="round" stroke-linejoin="round"/>
<path d="M77.2158 58.7384L120.629 58.7384" stroke="#AAC9F6" stroke-width="4" stroke-linecap="round" stroke-linejoin="round"/>
<path d="M51.7451 79.7887L120.629 79.7887" stroke="#AAC9F6" stroke-width="4" stroke-linecap="round" stroke-linejoin="round"/>
<path d="M51.7451 100.839L120.629 100.839" stroke="#AAC9F6" stroke-width="4" stroke-linecap="round" stroke-linejoin="round"/>
<path d="M51.7451 121.889L120.629 121.889" stroke="#AAC9F6" stroke-width="4" stroke-linecap="round" stroke-linejoin="round"/>
</svg>
