<svg width="36" height="41" viewBox="0 0 36 41" fill="none" xmlns="http://www.w3.org/2000/svg">
<g filter="url(#filter0_d)">
<path d="M6.90625 32.6005V4.48364C6.90625 3.93136 7.35396 3.48364 7.90625 3.48364H18.2416C18.5068 3.48364 18.7612 3.589 18.9487 3.77654L20.8842 5.71204L26.759 11.5868L29.7074 14.5352C29.8949 14.7227 30.0003 14.9771 30.0003 15.2423V32.6005C30.0003 33.1527 29.5526 33.6005 29.0003 33.6005H7.90625C7.35397 33.6005 6.90625 33.1528 6.90625 32.6005Z" fill="white"/>
<path d="M20.8842 5.71204L18.9487 3.77654C18.7612 3.589 18.5068 3.48364 18.2416 3.48364H7.90625C7.35396 3.48364 6.90625 3.93136 6.90625 4.48364V32.6005C6.90625 33.1527 7.35397 33.6005 7.90625 33.6005H29.0003C29.5526 33.6005 30.0003 33.1527 30.0003 32.6005V15.2423C30.0003 14.9771 29.8949 14.7227 29.7074 14.5352L26.759 11.5868M20.8842 5.71204V10.5868C20.8842 11.1391 21.332 11.5868 21.8842 11.5868H26.759M20.8842 5.71204L26.759 11.5868" stroke="#CECECE"/>
</g>
<g filter="url(#filter1_d)">
<rect x="3.26611" y="17.866" width="30.3744" height="10.433" rx="1.14652" fill="#4294F0"/>
</g>
<path d="M10.564 19.8223H12.8225C13.1373 19.8223 13.435 19.8509 13.7156 19.9081C13.9961 19.9654 14.2394 20.0656 14.4455 20.2087C14.6573 20.3461 14.8234 20.535 14.9436 20.7755C15.0695 21.0102 15.1325 21.3079 15.1325 21.6686C15.1325 22.0235 15.0752 22.3212 14.9608 22.5617C14.8463 22.8021 14.6888 22.9939 14.4884 23.137C14.2881 23.2802 14.0505 23.3832 13.7757 23.4462C13.5009 23.5034 13.2032 23.5321 12.8826 23.5321H11.9036V25.9022H10.564V19.8223ZM11.9036 22.3985H12.7967C12.9169 22.3985 13.0314 22.3871 13.1402 22.3642C13.2547 22.3413 13.3549 22.304 13.4408 22.2525C13.5324 22.1953 13.6039 22.1208 13.6555 22.0292C13.7127 21.9319 13.7413 21.8117 13.7413 21.6686C13.7413 21.514 13.7041 21.3909 13.6297 21.2993C13.561 21.202 13.4694 21.1276 13.3549 21.076C13.2461 21.0245 13.123 20.993 12.9856 20.9816C12.8482 20.9644 12.7166 20.9558 12.5906 20.9558H11.9036V22.3985Z" fill="white"/>
<path d="M15.9731 19.8223H17.9825C18.4692 19.8223 18.93 19.8767 19.3651 19.9854C19.8059 20.0942 20.1895 20.2717 20.5158 20.5179C20.8422 20.7583 21.0998 21.0732 21.2887 21.4625C21.4834 21.8518 21.5807 22.3241 21.5807 22.8794C21.5807 23.3718 21.4862 23.8069 21.2973 24.1847C21.1141 24.5568 20.8651 24.8717 20.5502 25.1293C20.2353 25.3812 19.8718 25.573 19.4596 25.7047C19.0474 25.8364 18.6151 25.9022 18.1629 25.9022H15.9731V19.8223ZM17.3127 24.6656H18.0083C18.3174 24.6656 18.6037 24.6341 18.867 24.5711C19.1361 24.5082 19.368 24.4051 19.5626 24.262C19.7573 24.1131 19.909 23.9214 20.0178 23.6866C20.1323 23.4462 20.1895 23.1542 20.1895 22.8107C20.1895 22.513 20.1323 22.2554 20.0178 22.0378C19.909 21.8146 19.7601 21.6314 19.5712 21.4882C19.3823 21.3451 19.159 21.2392 18.9014 21.1705C18.6495 21.0961 18.3833 21.0589 18.1028 21.0589H17.3127V24.6656Z" fill="white"/>
<path d="M22.5407 19.8223H26.6197V21.0589H23.8803V22.2955H26.4136V23.5321H23.8803V25.9022H22.5407V19.8223Z" fill="white"/>
<defs>
<filter id="filter0_d" x="2.40625" y="0.983643" width="32.0941" height="39.1168" filterUnits="userSpaceOnUse" color-interpolation-filters="sRGB">
<feFlood flood-opacity="0" result="BackgroundImageFix"/>
<feColorMatrix in="SourceAlpha" type="matrix" values="0 0 0 0 0 0 0 0 0 0 0 0 0 0 0 0 0 0 127 0"/>
<feOffset dy="2"/>
<feGaussianBlur stdDeviation="2"/>
<feColorMatrix type="matrix" values="0 0 0 0 0 0 0 0 0 0 0 0 0 0 0 0 0 0 0.05 0"/>
<feBlend mode="normal" in2="BackgroundImageFix" result="effect1_dropShadow"/>
<feBlend mode="normal" in="SourceGraphic" in2="effect1_dropShadow" result="shape"/>
</filter>
<filter id="filter1_d" x="0.973063" y="17.866" width="34.9605" height="17.3122" filterUnits="userSpaceOnUse" color-interpolation-filters="sRGB">
<feFlood flood-opacity="0" result="BackgroundImageFix"/>
<feColorMatrix in="SourceAlpha" type="matrix" values="0 0 0 0 0 0 0 0 0 0 0 0 0 0 0 0 0 0 127 0"/>
<feOffset dy="4.5861"/>
<feGaussianBlur stdDeviation="1.14652"/>
<feColorMatrix type="matrix" values="0 0 0 0 0 0 0 0 0 0 0 0 0 0 0 0 0 0 0.05 0"/>
<feBlend mode="normal" in2="BackgroundImageFix" result="effect1_dropShadow"/>
<feBlend mode="normal" in="SourceGraphic" in2="effect1_dropShadow" result="shape"/>
</filter>
</defs>
</svg>
