<svg width="160" height="158" viewBox="0 0 160 158" fill="none" xmlns="http://www.w3.org/2000/svg">
<g filter="url(#filter0_d)">
<path d="M24.9201 17.4089C24.271 24.5498 25.1365 26.7137 27.084 45.9724L28.5986 78.2145C28.815 83.1915 30.1134 99.6371 30.3298 108.509C30.5462 117.381 27.084 144.646 35.9559 149.84C44.8279 155.033 66.6833 152.869 78.5847 152.22C90.4862 151.571 131.198 152.003 139.637 152.22C148.076 152.436 153.456 153.085 155.403 144.646C157.351 136.207 151.941 98.7053 151.725 82.0433C151.508 65.3812 151.508 52.6805 151.725 40.5626C151.941 28.4448 151.792 12.2155 145.733 7.67138C139.674 3.12722 114.938 6.37303 99.5746 7.67138C84.2109 8.96973 55.431 5.94024 44.8279 6.37302C34.2248 6.8058 25.5692 10.268 24.9201 17.4089Z" fill="#ACC8E8"/>
<path d="M26.5644 46.4918C24.6169 27.2331 23.7515 25.0692 24.4006 17.9284C25.0497 10.7875 33.6964 6.89243 44.3084 6.89246C60.7434 6.89249 79.4587 6.89246 101.521 6.89246C116.939 6.89246 129.728 6.89248 141.904 6.89246C154.081 6.89244 151.421 28.9642 151.205 41.0821C150.989 53.1999 150.989 65.9007 151.205 82.5627C151.421 99.2247 156.831 136.726 154.884 145.166C152.936 153.605 143.648 152.956 135.209 152.739C126.77 152.523 94.6839 152.739 80.0783 152.739C68.1592 152.739 44.3083 155.552 35.4364 150.359C26.5644 145.166 30.0266 117.901 29.8102 109.029C29.5938 100.157 28.2955 83.7109 28.0791 78.7339" stroke="#1368C7" stroke-width="2.59728" stroke-linecap="round" stroke-linejoin="round"/>
</g>
<path d="M20.2448 13.2533C19.5957 20.3942 20.4612 22.558 22.4087 41.8167V74.47C22.625 79.4469 22.1923 95.1254 22.4087 103.997C22.625 112.869 22.4087 140.491 31.2806 145.684C40.1526 150.877 62.008 148.713 73.9094 148.064C85.8109 147.415 126.523 147.848 134.962 148.064C143.401 148.281 148.78 148.93 150.728 140.491C152.675 132.051 147.266 94.5497 147.049 77.8876C146.833 61.2256 146.833 48.5248 147.049 36.407C147.266 24.2892 147.117 8.0599 141.058 3.51574C134.999 -1.02842 110.263 2.21739 94.8993 3.51574C79.5356 4.8141 50.7557 1.7846 40.1526 2.21738C29.5495 2.65016 20.8939 6.1124 20.2448 13.2533Z" fill="#E0EFFF"/>
<path d="M22.4087 41.8168C20.4612 22.5581 19.5957 20.3942 20.2448 13.2533C20.8939 6.11243 29.5407 2.21739 40.1526 2.21741C56.5876 2.21744 75.3029 2.21741 97.365 2.21741C112.783 2.21741 125.572 2.21743 137.749 2.21741C149.926 2.21739 147.266 24.2892 147.049 36.407C146.833 48.5249 146.833 61.2256 147.049 77.8876C147.266 94.5497 152.675 132.051 150.728 140.491C148.78 148.93 139.493 148.281 131.053 148.064C122.614 147.848 90.5281 148.064 75.9225 148.064C64.0034 148.064 40.1526 150.877 31.2806 145.684C22.4087 140.491 22.625 113.401 22.4087 104.529C22.1923 95.6575 22.625 79.0358 22.4087 74.0589" stroke="#1368C7" stroke-width="2.59728" stroke-linecap="round" stroke-linejoin="round"/>
<g filter="url(#filter1_d)">
<path d="M4.64299 50.6102C2.91452 52.5206 2.55067 54.249 3.55139 63.2551C3.68184 64.4622 5.18883 66.5301 7.55408 66.5301C9.91932 66.5301 21.983 67.0759 26.2031 67.0759C31.0265 67.0759 41.6682 67.3232 43.4876 66.5301C47.0355 64.9836 45.9872 61.4476 45.9872 57.0744C45.9872 52.4029 44.0334 49.9734 41.6682 49.0637C39.303 48.154 32.2924 48.5178 29.5691 48.5178C26.3527 48.5178 16.9854 48.7908 13.0737 48.5178C9.16192 48.2449 6.37145 48.6998 4.64299 50.6102Z" fill="#4294F0" stroke="#1368C7" stroke-width="2.59728" stroke-linecap="round" stroke-linejoin="round"/>
<path d="M12.9042 61.6901C12.9042 58.8454 12.4572 54.0907 12.9042 53.4811C13.3513 52.8715 15.3832 52.7496 16.3991 53.4811C17.4151 54.2126 18.7562 55.5943 18.4311 56.7322C18.106 57.8701 15.2613 58.4796 14.0827 58.5609" stroke="white" stroke-width="2.59728" stroke-linecap="round" stroke-linejoin="round"/>
<path d="M22.5038 53.3999C22.0568 54.4971 22.5039 59.7075 22.5038 61.9089C24.3326 61.8683 27.5023 61.1212 28.1931 59.0893C28.884 57.0574 28.5589 55.1474 27.5023 54.3346C26.4457 53.5218 24.8201 53.0748 22.5038 53.3999Z" stroke="white" stroke-width="2.59728" stroke-linecap="round" stroke-linejoin="round"/>
<path d="M33.7929 62.3404C33.8335 59.7396 32.4925 54.5784 32.208 53.9283C34.8901 53.4406 35.1746 53.4406 37.1252 53.6844" stroke="white" stroke-width="2.59728" stroke-linecap="round" stroke-linejoin="round"/>
<path d="M38.2558 59.0333C35.4923 58.5457 35.98 58.3831 34.1919 58.7082" stroke="white" stroke-width="2.59728" stroke-linecap="round" stroke-linejoin="round"/>
</g>
<path d="M31.4745 16.8894C29.9003 19.4268 30.5299 22.9792 31.4745 32.9597C31.9113 37.4336 36.5121 37.8654 39.6606 37.8654H54.1071C55.6814 37.8654 57.6074 37.5271 58.3945 32.9597C59.1816 28.3924 58.7093 20.2726 56.3479 16.8894C53.9865 13.5062 46.7449 13.6753 41.2349 13.6753C35.725 13.6753 33.0488 14.352 31.4745 16.8894Z" stroke="#AAC9F6" stroke-width="3.11674" stroke-linecap="round" stroke-linejoin="round"/>
<path d="M73.2393 16.0108C70.7603 16.0107 70.0517 16.8566 70.2289 19.9015C70.2289 23.4539 77.5289 23.4539 85.0771 23.4539H85.0772C98.155 23.4539 115.334 22.3391 129.483 22.3391C136.214 22.3391 136.869 17.7347 134.291 16.0108C131.713 14.2869 114.826 14.7196 105.058 14.7196C99.9869 14.7196 75.7183 16.0108 73.2393 16.0108Z" stroke="#AAC9F6" stroke-width="3.11674" stroke-linecap="round" stroke-linejoin="round"/>
<path d="M70.2031 36.6691C93.6521 35.3158 94.8486 35.8099 102.721 35.8099C110.104 35.81 132.176 35.3158 136.456 36.6691" stroke="#AAC9F6" stroke-width="3.11674" stroke-linecap="round" stroke-linejoin="round"/>
<path d="M61.7261 54.6274C76.7156 53.6125 78.4533 53.6124 87.7946 54.6274C97.1359 55.6424 100.829 54.6274 109.953 54.6274C119.077 54.6274 132.328 53.4433 136.456 54.6274" stroke="#AAC9F6" stroke-width="3.11674" stroke-linecap="round" stroke-linejoin="round"/>
<path d="M61.7261 70.9802C71.7616 69.1194 80.0051 68.6119 86.6358 69.796C93.2666 70.9802 132.872 69.796 136.456 69.796" stroke="#AAC9F6" stroke-width="3.11674" stroke-linecap="round" stroke-linejoin="round"/>
<path d="M39.4404 132.646C69.2157 131.631 79.8498 133.661 89.993 132.646C100.136 131.631 131.547 130.616 136.456 131.631" stroke="#AAC9F6" stroke-width="3.11674" stroke-linecap="round" stroke-linejoin="round"/>
<path d="M39.4404 86.5829C60.3783 87.5978 65.4656 86.5829 72.0279 86.5829C78.215 86.5829 86.6687 86.5829 91.7063 86.5829C96.744 86.5829 97.3737 86.4981 100.365 85.8214" stroke="#AAC9F6" stroke-width="3.11674" stroke-linecap="round" stroke-linejoin="round"/>
<path d="M39.4404 101.489C54.5498 102.335 63.6069 101.489 70.5245 101.489C82.6896 101.489 91.3733 103.559 100.365 101.489" stroke="#AAC9F6" stroke-width="3.11674" stroke-linecap="round" stroke-linejoin="round"/>
<path d="M39.4404 116.64C43.3816 117.655 45.5163 116.64 50.9355 116.64C56.3547 116.64 69.3597 116.302 73.9577 116.64C78.5558 116.978 83.9489 116.809 87.5616 116.64C91.1744 116.471 97.9016 117.824 100.365 116.64" stroke="#AAC9F6" stroke-width="3.11674" stroke-linecap="round" stroke-linejoin="round"/>
<path d="M116.777 118.113C110.429 117.638 112.355 109.456 112.355 99.9187C112.355 95.2315 111.852 88.1499 114.024 86.6664C116.195 85.1829 121.594 85.7198 128.152 85.7198C134.71 85.7198 136.376 88.4538 136.376 95.8686C136.376 100.816 135.698 104.013 136.376 111.007C137.055 118.001 133.296 118.113 128.152 118.113C124.727 118.113 119.107 118.287 116.777 118.113Z" stroke="#AAC9F6" stroke-width="3.11674" stroke-linecap="round" stroke-linejoin="round"/>
<defs>
<filter id="filter0_d" x="21.8553" y="4.29629" width="137.869" height="153.622" filterUnits="userSpaceOnUse" color-interpolation-filters="sRGB">
<feFlood flood-opacity="0" result="BackgroundImageFix"/>
<feColorMatrix in="SourceAlpha" type="matrix" values="0 0 0 0 0 0 0 0 0 0 0 0 0 0 0 0 0 0 127 0"/>
<feOffset dx="1.0425" dy="1.0425"/>
<feGaussianBlur stdDeviation="1.03869"/>
<feColorMatrix type="matrix" values="0 0 0 0 0 0 0 0 0 0 0 0 0 0 0 0 0 0 0.15 0"/>
<feBlend mode="normal" in2="BackgroundImageFix" result="effect1_dropShadow"/>
<feBlend mode="normal" in="SourceGraphic" in2="effect1_dropShadow" result="shape"/>
</filter>
<filter id="filter1_d" x="0.667751" y="46.1116" width="49.8827" height="25.4193" filterUnits="userSpaceOnUse" color-interpolation-filters="sRGB">
<feFlood flood-opacity="0" result="BackgroundImageFix"/>
<feColorMatrix in="SourceAlpha" type="matrix" values="0 0 0 0 0 0 0 0 0 0 0 0 0 0 0 0 0 0 127 0"/>
<feOffset dx="1.0425" dy="1.0425"/>
<feGaussianBlur stdDeviation="1.03869"/>
<feColorMatrix type="matrix" values="0 0 0 0 0 0 0 0 0 0 0 0 0 0 0 0 0 0 0.15 0"/>
<feBlend mode="normal" in2="BackgroundImageFix" result="effect1_dropShadow"/>
<feBlend mode="normal" in="SourceGraphic" in2="effect1_dropShadow" result="shape"/>
</filter>
</defs>
</svg>
