<svg fill="none" xmlns="http://www.w3.org/2000/svg" viewBox="0 0 64 56" width="50"><g filter="url(#filter0_d)"><path d="M57.7 52.3H6.5a2.2 2.2 0 01-2-3.3L30.3 5.3c.8-1.4 3-1.4 3.8 0L59.6 49c.8 1.5-.2 3.3-2 3.3z" fill="#FFE9E8"/><path d="M57.7 52.3H6.5a2.2 2.2 0 01-2-3.3L30.3 5.3c.8-1.4 3-1.4 3.8 0L59.6 49c.8 1.5-.2 3.3-2 3.3z" stroke="#F04C42" stroke-width="2.7" stroke-linecap="round" stroke-linejoin="round"/></g><path fill-rule="evenodd" clip-rule="evenodd" d="M31.3 17.5c-.9 0-1.5 1-1.5 2.3l.7 16.4c0 1.1.7 2 1.6 2 .8 0 1.5-.9 1.6-2l.6-16.4c0-1.2-.6-2.2-1.5-2.3h-1.5z" fill="#F04C42"/><circle cx="32.1" cy="43.3" r="2.3" fill="#F04C42"/><defs><filter id="filter0_d" x=".7" y=".7" width="62.7" height="55.1" filterUnits="userSpaceOnUse" color-interpolation-filters="sRGB"><feFlood flood-opacity="0" result="BackgroundImageFix"/><feColorMatrix in="SourceAlpha" values="0 0 0 0 0 0 0 0 0 0 0 0 0 0 0 0 0 0 127 0"/><feOffset/><feGaussianBlur stdDeviation="1.1"/><feColorMatrix values="0 0 0 0 0 0 0 0 0 0 0 0 0 0 0 0 0 0 0.25 0"/><feBlend in2="BackgroundImageFix" result="effect1_dropShadow"/><feBlend in="SourceGraphic" in2="effect1_dropShadow" result="shape"/></filter></defs></svg>
