<svg width="64" height="56" viewBox="0 0 64 56" fill="none" xmlns="http://www.w3.org/2000/svg">
<g filter="url(#filter0_d)">
<path d="M57.6843 52.2861H6.459C4.77063 52.2861 3.72043 50.4526 4.57463 48.9962L30.1873 5.32845C31.0314 3.88933 33.1119 3.88933 33.956 5.32845L59.5687 48.9962C60.4229 50.4526 59.3727 52.2861 57.6843 52.2861Z" fill="#FFE9E8"/>
<path d="M57.6843 52.2861H6.459C4.77063 52.2861 3.72043 50.4526 4.57463 48.9962L30.1873 5.32845C31.0314 3.88933 33.1119 3.88933 33.956 5.32845L59.5687 48.9962C60.4229 50.4526 59.3727 52.2861 57.6843 52.2861Z" stroke="#F04C42" stroke-width="2.73074" stroke-linecap="round" stroke-linejoin="round"/>
</g>
<path fill-rule="evenodd" clip-rule="evenodd" d="M31.3353 17.5271C30.4428 17.5884 29.7571 18.5904 29.8038 19.7649L30.4558 36.1834C30.5007 37.3148 31.2109 38.2018 32.0718 38.2018C32.9327 38.2018 33.6429 37.3148 33.6878 36.1834L34.3398 19.7649C34.3865 18.5904 33.7008 17.5884 32.8083 17.5271C32.0932 17.4779 32.0503 17.4779 31.3353 17.5271Z" fill="#F04C42"/>
<circle cx="32.0718" cy="43.3098" r="2.27027" fill="#F04C42"/>
<defs>
<filter id="filter0_d" x="0.718972" y="0.699136" width="62.7052" height="55.1369" filterUnits="userSpaceOnUse" color-interpolation-filters="sRGB">
<feFlood flood-opacity="0" result="BackgroundImageFix"/>
<feColorMatrix in="SourceAlpha" type="matrix" values="0 0 0 0 0 0 0 0 0 0 0 0 0 0 0 0 0 0 127 0"/>
<feOffset/>
<feGaussianBlur stdDeviation="1.0923"/>
<feColorMatrix type="matrix" values="0 0 0 0 0 0 0 0 0 0 0 0 0 0 0 0 0 0 0.25 0"/>
<feBlend mode="normal" in2="BackgroundImageFix" result="effect1_dropShadow"/>
<feBlend mode="normal" in="SourceGraphic" in2="effect1_dropShadow" result="shape"/>
</filter>
</defs>
</svg>
