<svg xmlns="http://www.w3.org/2000/svg" height="128" width="128" viewBox="0 0 1024 1024"><path d="M641 13c40-6 85 10 106 47 29 51 13 123-41 157-42 26-98 28-137 1-34-24-46-74-34-116 14-48 57-83 106-89zm23 331c23 55-5 119-25 174-35 97-105 279-116 316-14 41-1 59 26 48 45-18 96-98 131-124 14-10 30 14 23 30a517 517 0 01-225 199c-48 21-112 36-158 15-39-17-46-61-40-97 16-107 65-206 103-306 22-58 64-156 68-173 6-32-16-39-41-26-51 27-99 106-126 123-15 10-31-7-28-21 8-33 84-106 112-129 74-62 141-75 187-80 42-3 93 8 109 51z" fill="#4294f0"/></svg>
