<svg fill="none" xmlns="http://www.w3.org/2000/svg" width="46" height="46" viewBox="0 0 47 46"><rect x=".2" width="46" height="46" rx="6" fill="#524870"/><path fill-rule="evenodd" clip-rule="evenodd" d="M20.8 21.2L16 26a2.4 2.4 0 003.4 3.4l5-5a2.4 2.4 0 10-3.5-3.3zm-6.6 3.1a4.9 4.9 0 006.9 7l4.9-5a4.9 4.9 0 00-7-6.9l-4.8 4.9z" fill="#fff"/><path fill-rule="evenodd" clip-rule="evenodd" d="M24.3 28l1.7-1.7c1-.9 1.4-2 1.4-3.3 0 1.2-.5 2.4-1.4 3.3L24.3 28zm-5.2-4a4.9 4.9 0 001.6 2.9l1.8-1.8-.3-.3c-1-1-1-2.4 0-3.4l.1-.1c-.3 0-.6.2-.9.5L19.1 24zm6-5.4zm.5-.6c-.8-.5-1.7-.8-2.6-.9l2.4-2.3a4.9 4.9 0 016.9 6.9l-5 4.9c-.4.4-.9.8-1.4 1l.7-.7c1.3-1.3 1.8-3 1.6-4.7l2.3-2.3a2.4 2.4 0 10-3.4-3.4L25.6 18zM19 23l1.8-1.8L19 23z" fill="#fff"/></svg>
