<svg width="498" height="376" fill="none" xmlns="http://www.w3.org/2000/svg"><path fill="#1F77DA" d="M.3 110.9h497v136.7H.3z"/><path fill="#4294F0" d="M.3.9h497v110.4H.3z"/><text fill="#fff" style="white-space:pre" font-family="Source Sans Pro" font-size="18" font-weight="bold" letter-spacing="0em"><tspan x="111.1" y="62.7">Upload documents</tspan></text><path d="M497.3 247.6H.3v127.5h497V247.6z" fill="#494949"/><text fill="#fff" style="white-space:pre" font-family="Source Sans Pro" font-size="18" font-weight="bold" letter-spacing="0em"><tspan x="184.7" y="310">Embed documents on your site </tspan><tspan x="166.2" y="333">and publish to our growing archive.</tspan></text><path fill="#4294F0" d="M50.1 277.7h84.6v77.6H50.1z"/><path fill="#1368C7" d="M50 274.9h84.7v9H50z"/><path fill-rule="evenodd" clip-rule="evenodd" d="M127.2 278.6a1.7 1.7 0 11-3.4 0 1.7 1.7 0 013.4 0zm-.3 1.7a2.2 2.2 0 11.4-.4l2.3 2.5-.3.3-2.4-2.4z" fill="#64ACFD"/><path fill="#64ACFD" d="M51 283.9h61.3v70.5H51z"/><path fill="#fff" d="M61.3 287.3h40.5v52.1H61.3zM61.3 345.5h40.5v8.9H61.3z"/><rect x="53.7" y="277" width="13.2" height="4.8" rx=".9" fill="#64ACFD"/><rect x="68.5" y="277" width="13.2" height="4.8" rx=".9" fill="#64ACFD"/><rect x="83.2" y="277" width="13.2" height="4.8" rx=".9" fill="#64ACFD"/><path fill="#64ACFD" d="M114.9 290.2h16.8v2.8h-16.8zM114.9 297.2h16.8v1.8h-16.8zM114.9 300.5h16.8v1.8h-16.8zM114.9 306.7h16.8v1.8h-16.8zM114.9 309.9h16.8v1.8h-16.8zM114.9 313.2h16.8v1.8h-16.8z"/><g filter="url(#filter0_d)"><path d="M24 99.8L8.3 258H471l18.3-158.2H24z" fill="#1368C7"/></g><text fill="#fff" style="white-space:pre" font-family="Source Sans Pro" font-size="18" font-weight="bold" letter-spacing="0em"><tspan x="121" y="140.7">Extract text, places, and people.</tspan></text><text fill="#fff" style="white-space:pre" font-family="Source Sans Pro" font-size="18" font-weight="bold" letter-spacing="0em"><tspan x="141.8" y="237.5">Annotate, redact, and edit.</tspan></text><path fill-rule="evenodd" clip-rule="evenodd" d="M242.6 198.5c-2.7-3.2-5.3-6.2-3-11 3.8-7.8 14.7-11 22.5-11 7.7 0 15.4 3.2 11.7 11-2.5 5-8.1 8-13.9 11.1-5.8 3.2-11.7 6.4-14.3 11.6 2.6-5.3-.2-8.5-3-11.7zm12.7-8.2c3.7 0 7.7-1.9 8.9-4.3 1.1-2.3-1-4.2-4.7-4.2s-7.7 1.9-8.8 4.2c-1.2 2.4.9 4.3 4.6 4.3z" fill="#000" fill-opacity=".1"/><path fill-rule="evenodd" clip-rule="evenodd" d="M237.3 192.4c-4.2-4.7-8.4-9.3-8.4-16.5 0-11.7 9.3-16.6 17.1-16.6 7.8 0 17 4.9 17 16.6 0 7.2-4 11.8-8.3 16.5-4.3 5-8.7 9.9-8.7 17.8 0-8-4.4-12.9-8.7-17.8zm8.7-12.2c3.7 0 6.7-3 6.7-6.5 0-3.6-3-6.5-6.7-6.5a6.6 6.6 0 00-6.7 6.5c0 3.6 3 6.5 6.7 6.5zM304 198.5c8.7 0 15.7-6.8 15.7-15.2 0-8.4-7-15.2-15.8-15.2-8.7 0-15.8 6.8-15.8 15.2 0 8.4 7 15.2 15.8 15.2zm7-21.4c.8 0 2 0 3.3.2a3 3 0 012 5.1l-1.1 1.1c-1 .5-6.5.2-7.5 0-.6-.1-1.5-1.2-2.3-2.4l-.2-.5c-.3-.8-.7-2-1.6-2-.6 0-.9.8-.9 1.4 0 .4 0 .7-.3 1.1-.7 1.2-1.7 2.3-2.3 2.4-1 .2-6.4.5-7.4 0-.3-.1-.7-.5-1.2-1a3 3 0 012-5.2l3.4-.2c1 0 2.3.2 3.6.5l2 .2a10 10 0 012.5 0c.8 0 1.6 0 2.3-.2 1.3-.3 2.7-.5 3.6-.5z" fill="#fff"/><g filter="url(#filter1_d)"><path d="M322.8 72.2v8.2c0 .3.2.6.6.6h34.3c.3 0 .6-.3.6-.6v-8.2h6.7c.4 0 .7-.3.7-.6v-16c0-.3-.3-.7-.7-.7h-6.7v-4.8l-.2-.4-17-18.4a.6.6 0 00-.5-.2h-17.2c-.4 0-.6.3-.6.6V55H316c-.4 0-.7.4-.7.7v16c0 .3.3.6.7.6h6.7z" fill="#fff" fill-opacity=".3"/></g><g filter="url(#filter2_d)"><path d="M324 73.4v8.2c0 .3.2.5.5.5h34.3c.4 0 .6-.2.6-.5v-8.2h6.8c.3 0 .6-.3.6-.7v-16c0-.3-.3-.6-.6-.6h-6.8v-4.8l-.1-.4-17.1-18.4a.6.6 0 00-.5-.2h-17.2c-.3 0-.6.2-.6.6V56h-6.7c-.4 0-.7.3-.7.7v15.9c0 .4.3.7.7.7h6.7z" fill="#fff" fill-opacity=".3"/></g><g filter="url(#filter3_d)"><path d="M320.5 70V78c0 .4.3.6.6.6h34.3c.4 0 .6-.2.6-.6V70h6.7c.4 0 .7-.3.7-.7v-16c0-.3-.3-.6-.7-.6H356v-4.8l-.1-.4L338.7 29a.6.6 0 00-.4-.2h-17.2c-.3 0-.6.3-.6.6v23.3h-6.7c-.4 0-.7.3-.7.6v16c0 .4.3.7.7.7h6.7z" fill="#fff" fill-opacity=".3"/></g><g filter="url(#filter4_d)"><path d="M321.6 71v8.3c0 .3.3.6.6.6h34.4c.3 0 .6-.3.6-.6V71h6.7c.4 0 .7-.3.7-.7v-16c0-.3-.3-.6-.7-.6h-6.7V49l-.2-.4-17.1-18.4a.6.6 0 00-.4-.2h-17.3c-.3 0-.6.3-.6.6v23.2H315c-.4 0-.7.3-.7.7v16c0 .3.3.6.7.6h6.7z" fill="#fff" fill-opacity=".3"/></g><g filter="url(#filter5_d)"><path d="M319.1 76V28.2c0-.6.5-1 1-1h16.6c.3 0 .6 0 .8.3l3.1 3.3 9 9.8 4.8 5 .2.7V76c0 .6-.4 1-1 1h-33.4a1 1 0 01-1-1z" fill="#64ACFD"/><path d="M340.6 30.8l-3-3.3a1 1 0 00-.9-.4h-16.5a1 1 0 00-1 1V76c0 .6.4 1 1 1h33.4c.6 0 1-.4 1-1V46.3a1 1 0 00-.2-.7l-4.7-5m-9-9.8v8.7c0 .6.4 1 1 1h8m-9-9.7l9 9.8" stroke="#fff" stroke-width="2.1"/></g><g filter="url(#filter6_d)"><g filter="url(#filter7_d)"><rect x="311.7" y="51" width="50.3" height="17.3" rx="1.2" fill="#fff"/></g><g filter="url(#filter8_d)" fill="#4294F0"><path d="M323.8 54.2h3.8l1.4.1 1.3.5.8 1c.2.4.3.9.3 1.5 0 .5-.1 1-.3 1.4-.2.4-.4.7-.8 1l-1.2.5-1.4.1H326v4h-2.2V54.2zm2.2 4.3h2.1l.5-.3.3-.3.2-.6c0-.3 0-.5-.2-.7a1 1 0 00-.5-.3l-.6-.2H326v2.4zM332.8 54.2h3.3c.8 0 1.6 0 2.3.3.7.1 1.4.4 2 .8.4.4.9 1 1.2 1.6.3.7.5 1.4.5 2.4a4.8 4.8 0 01-1.7 3.7l-1.8 1a7 7 0 01-2.2.3h-3.6V54.2zm2.2 8h1.2l1.4-.1 1.1-.5c.4-.3.6-.6.8-1 .2-.4.3-.9.3-1.5a2.7 2.7 0 00-1-2.1c-.4-.3-.7-.5-1.2-.6l-1.3-.2H335v6zM343.7 54.2h6.7v2H346v2h4.2v2.1h-4.2v4h-2.2V54.2z"/></g></g><path fill-rule="evenodd" clip-rule="evenodd" d="M180.3 199.6s-3.4 0-3.5-.4c-.2-.4-.3-.5 0-.9l1.4-.8 1.8-1.1a574.6 574.6 0 0013.7-22.4c.8-1.2 2.5-2.8 3.4-2.8 1 0 1.6 1.2 1.8 2l1.8 12.3.2 1.6.2 1.6c.3 2.7.9 7 1.2 7.6.1.3.6.6 1 .9.6.4 1.2.8 1.2 1.1.1.8-.9 1.3-2.2 1.3H201a22 22 0 01-3.3 0h-.9c-.8-.1-1.6-.2-1.6-.7 0-.4.3-.6.7-.9.3-.2.6-.5.7-.8.3-.7.9-3.3.6-5.2-.3-1.9-1.3-2.4-4.2-2.4-2.9 0-5.7.1-6.6 1.3-.9 1.2-1.5 2.5-1.8 3.3l-.2.5c-.3.6-.6 1.4-.5 2 0 .3.3.5.5.7.4.3.8.7.8 1.5 0 .7-5 .7-5 .7zm9.2-13.4l-.5 1a111.3 111.3 0 007.3 0c.4 0 .5-.3.4-.6v-.2a40 40 0 00-1.4-9.7c0-.3-.2 0-.4.2l-4.6 8-.8 1.3z" fill="#fff"/><defs><filter id="filter0_d" x="4.3" y="95.8" width="488.9" height="166.2" filterUnits="userSpaceOnUse" color-interpolation-filters="sRGB"><feFlood flood-opacity="0" result="BackgroundImageFix"/><feColorMatrix in="SourceAlpha" values="0 0 0 0 0 0 0 0 0 0 0 0 0 0 0 0 0 0 127 0"/><feOffset/><feGaussianBlur stdDeviation="2"/><feColorMatrix values="0 0 0 0 0 0 0 0 0 0 0 0 0 0 0 0 0 0 0.25 0"/><feBlend in2="BackgroundImageFix" result="effect1_dropShadow"/><feBlend in="SourceGraphic" in2="effect1_dropShadow" result="shape"/></filter><filter id="filter1_d" x="313" y="31.1" width="55.1" height="57" filterUnits="userSpaceOnUse" color-interpolation-filters="sRGB"><feFlood flood-opacity="0" result="BackgroundImageFix"/><feColorMatrix in="SourceAlpha" values="0 0 0 0 0 0 0 0 0 0 0 0 0 0 0 0 0 0 127 0"/><feOffset dy="4.8"/><feGaussianBlur stdDeviation="1.2"/><feColorMatrix values="0 0 0 0 0 0 0 0 0 0 0 0 0 0 0 0 0 0 0.05 0"/><feBlend in2="BackgroundImageFix" result="effect1_dropShadow"/><feBlend in="SourceGraphic" in2="effect1_dropShadow" result="shape"/></filter><filter id="filter2_d" x="314.1" y="32.3" width="55.1" height="57" filterUnits="userSpaceOnUse" color-interpolation-filters="sRGB"><feFlood flood-opacity="0" result="BackgroundImageFix"/><feColorMatrix in="SourceAlpha" values="0 0 0 0 0 0 0 0 0 0 0 0 0 0 0 0 0 0 127 0"/><feOffset dy="4.8"/><feGaussianBlur stdDeviation="1.2"/><feColorMatrix values="0 0 0 0 0 0 0 0 0 0 0 0 0 0 0 0 0 0 0.05 0"/><feBlend in2="BackgroundImageFix" result="effect1_dropShadow"/><feBlend in="SourceGraphic" in2="effect1_dropShadow" result="shape"/></filter><filter id="filter3_d" x="310.7" y="28.8" width="55.1" height="57" filterUnits="userSpaceOnUse" color-interpolation-filters="sRGB"><feFlood flood-opacity="0" result="BackgroundImageFix"/><feColorMatrix in="SourceAlpha" values="0 0 0 0 0 0 0 0 0 0 0 0 0 0 0 0 0 0 127 0"/><feOffset dy="4.8"/><feGaussianBlur stdDeviation="1.2"/><feColorMatrix values="0 0 0 0 0 0 0 0 0 0 0 0 0 0 0 0 0 0 0.05 0"/><feBlend in2="BackgroundImageFix" result="effect1_dropShadow"/><feBlend in="SourceGraphic" in2="effect1_dropShadow" result="shape"/></filter><filter id="filter4_d" x="311.9" y="30" width="55.1" height="57" filterUnits="userSpaceOnUse" color-interpolation-filters="sRGB"><feFlood flood-opacity="0" result="BackgroundImageFix"/><feColorMatrix in="SourceAlpha" values="0 0 0 0 0 0 0 0 0 0 0 0 0 0 0 0 0 0 127 0"/><feOffset dy="4.8"/><feGaussianBlur stdDeviation="1.2"/><feColorMatrix values="0 0 0 0 0 0 0 0 0 0 0 0 0 0 0 0 0 0 0.05 0"/><feBlend in2="BackgroundImageFix" result="effect1_dropShadow"/><feBlend in="SourceGraphic" in2="effect1_dropShadow" result="shape"/></filter><filter id="filter5_d" x="314" y="24" width="45.9" height="60.2" filterUnits="userSpaceOnUse" color-interpolation-filters="sRGB"><feFlood flood-opacity="0" result="BackgroundImageFix"/><feColorMatrix in="SourceAlpha" values="0 0 0 0 0 0 0 0 0 0 0 0 0 0 0 0 0 0 127 0"/><feOffset dy="2.1"/><feGaussianBlur stdDeviation="2.1"/><feColorMatrix values="0 0 0 0 0 0 0 0 0 0 0 0 0 0 0 0 0 0 0.05 0"/><feBlend in2="BackgroundImageFix" result="effect1_dropShadow"/><feBlend in="SourceGraphic" in2="effect1_dropShadow" result="shape"/></filter><filter id="filter6_d" x="307.7" y="51" width="58.3" height="25.3" filterUnits="userSpaceOnUse" color-interpolation-filters="sRGB"><feFlood flood-opacity="0" result="BackgroundImageFix"/><feColorMatrix in="SourceAlpha" values="0 0 0 0 0 0 0 0 0 0 0 0 0 0 0 0 0 0 127 0"/><feOffset dy="4"/><feGaussianBlur stdDeviation="2"/><feColorMatrix values="0 0 0 0 0 0 0 0 0 0 0 0 0 0 0 0 0 0 0.25 0"/><feBlend in2="BackgroundImageFix" result="effect1_dropShadow"/><feBlend in="SourceGraphic" in2="effect1_dropShadow" result="shape"/></filter><filter id="filter7_d" x="309.4" y="51" width="55.1" height="24.4" filterUnits="userSpaceOnUse" color-interpolation-filters="sRGB"><feFlood flood-opacity="0" result="BackgroundImageFix"/><feColorMatrix in="SourceAlpha" values="0 0 0 0 0 0 0 0 0 0 0 0 0 0 0 0 0 0 127 0"/><feOffset dy="4.8"/><feGaussianBlur stdDeviation="1.2"/><feColorMatrix values="0 0 0 0 0 0 0 0 0 0 0 0 0 0 0 0 0 0 0.05 0"/><feBlend in2="BackgroundImageFix" result="effect1_dropShadow"/><feBlend in="SourceGraphic" in2="effect1_dropShadow" result="shape"/></filter><filter id="filter8_d" x="319.7" y="50.1" width="34.9" height="18.4" filterUnits="userSpaceOnUse" color-interpolation-filters="sRGB"><feFlood flood-opacity="0" result="BackgroundImageFix"/><feColorMatrix in="SourceAlpha" values="0 0 0 0 0 0 0 0 0 0 0 0 0 0 0 0 0 0 127 0"/><feOffset/><feGaussianBlur stdDeviation="2.1"/><feColorMatrix values="0 0 0 0 0 0 0 0 0 0 0 0 0 0 0 0 0 0 0.1 0"/><feBlend in2="BackgroundImageFix" result="effect1_dropShadow"/><feBlend in="SourceGraphic" in2="effect1_dropShadow" result="shape"/></filter></defs></svg>