<svg class="mastlogo" fill="none" xmlns="http://www.w3.org/2000/svg" viewBox="0 0 330 99" width="330" height="99"><path d="M9.5 35.8H4.7v16.6h4.8c5.2 0 8.5-3.4 8.5-8.2a8 8 0 00-8.5-8.4zm0 20.6h-9V31.9h9c7.7 0 13 5.3 13 12.2 0 7-5.3 12.3-13 12.3zM36 41.2c-3.4 0-5.5 2.7-5.5 6 0 3.2 2.3 5.9 5.6 5.9 3.4 0 5.6-2.6 5.6-5.9 0-3.3-2.4-6-5.7-6zm0 15.6a9.6 9.6 0 110-19.2c5.7 0 9.9 4.2 9.9 9.5s-4.2 9.7-9.9 9.7m22.7 0a9.4 9.4 0 01-9.5-9.6c0-5.3 4-9.7 9.5-9.7 3.5 0 5.7 1.3 7.4 3.2l-2.6 2.8c-1.3-1.3-2.7-2.3-4.8-2.3-3 0-5.3 2.7-5.3 6s2.3 5.9 5.5 5.9c2 0 3.5-1 4.8-2.3l2.5 2.5c-1.8 2-4 3.5-7.5 3.5M82.2 38h4.2v18.4h-4.2v-3a6.6 6.6 0 01-5.7 3.3c-4.2 0-6.6-2.8-6.6-7V37.8H74v10.5c0 2.9 1.4 4.5 4 4.5 2.4 0 4.1-1.7 4.1-4.6V38m31.2-.5c4 0 6.5 2.6 6.5 7v11.9h-4.3V45.9c0-3-1.3-4.5-3.7-4.5-2.3 0-4 1.6-4 4.5v10.5h-4.2V45.8c0-2.8-1.4-4.4-3.7-4.4-2.3 0-4 1.7-4 4.6v10.4h-4.2V37.9H96v2.8c1.2-1.6 2.8-3.2 5.6-3.2 2.6 0 4.5 1.3 5.5 3.3 1.5-2 3.4-3.3 6.2-3.3zm24.2 8.3c-.2-2.7-1.9-4.8-4.6-4.8-2.6 0-4.4 2-4.8 4.8h9.4zm-4 7.5c2 0 3.4-.8 5-2.2l2.4 2.2a9.3 9.3 0 01-7.6 3.5 9.2 9.2 0 01-9.4-9.6c0-5.3 3.7-9.7 9-9.7 5.9 0 8.8 4.6 8.8 10v1.1H128c.5 3 2.6 4.7 5.3 4.7m16.9 3.1H146V37.9h4.2v2.9a6.6 6.6 0 015.8-3.3c4.1 0 6.5 2.8 6.5 7.1v11.8h-4.2V45.9c0-2.9-1.4-4.5-4-4.5-2.4 0-4.1 1.7-4.1 4.5v10.5m22.5-5.8c0 1.6.9 2.3 2.3 2.3 1 0 1.8-.2 2.6-.6v3.4c-1 .6-2.2 1-3.8 1-3.1 0-5.3-1.4-5.3-5.4v-9.7h-2.3v-3.7h2.3v-5h4.2v5h5v3.7h-5v9m21.1 6.2c-7.2 0-12.5-5.6-12.5-12.6s5.2-12.7 12.6-12.7c4.5 0 7.3 1.6 9.6 3.8l-2.8 3.2c-2-1.8-4-3-6.8-3-4.7 0-8 3.8-8 8.6s3.3 8.7 8 8.7c3 0 5-1.2 7-3.2l2.8 2.8a12.6 12.6 0 01-10 4.4m14.3-.4V30.9h4.2v25.5h-4.3zm18.4-15.2c-3.4 0-5.5 2.7-5.5 6 0 3.2 2.3 5.9 5.6 5.9 3.4 0 5.6-2.6 5.6-5.9 0-3.3-2.4-6-5.7-6zm0 15.6a9.5 9.5 0 01-9.7-9.6c0-5.3 4.1-9.7 9.8-9.7 5.7 0 9.8 4.3 9.8 9.6s-4.2 9.7-9.9 9.7M252.7 38h4.2v18.4h-4.2v-3a6.6 6.6 0 01-5.7 3.3c-4.2 0-6.6-2.8-6.6-7V37.8h4.2v10.5c0 2.9 1.4 4.5 4 4.5 2.4 0 4.1-1.7 4.1-4.6V38m18.2 3.2c-3 0-5.3 2.2-5.3 6 0 3.6 2.4 5.9 5.3 5.9 2.8 0 5.3-2.4 5.3-6s-2.5-5.9-5.3-5.9zm5.2 15.2v-3.1a7.4 7.4 0 01-6.2 3.4c-4.4 0-8.6-3.4-8.6-9.6 0-6.1 4.2-9.6 8.6-9.6 3 0 5 1.6 6.2 3.3v-10h4.3v25.6H276" fill="#222222"/><path d="M287.6 6.7a36.2 36.2 0 00-9.7-1.2 23 23 0 00-15.7 5.2 16 16 0 00-4.2 5.4l-1.5 3.8-2.7-3v-.1l-.3-.3a31 31 0 00-4.7-4 28.7 28.7 0 00-16-5.8c-8.6 0-13.1 5-13.5 5.4l-1.7 2-2-1.8-.2-.2a21.3 21.3 0 00-4.4-3A25.5 25.5 0 00198 6c-2.7 0-4.8.6-6.4 1.3l-2-4.6a21.8 21.8 0 019.3-1.8c8.7 0 15.2 4 18.3 6.2a24 24 0 0115.6-5.4c1.4 0 2.8 0 4.3.3a36 36 0 0118 9 23 23 0 013.5-3.8A28 28 0 01277.9.5a41.8 41.8 0 0111 1.3c.2 0 12.4 3 19.5 13a25.8 25.8 0 014.4 20.2c3.5 1.7 10.4 6 14.3 14.4 1.3 3 2 5.8 2 8.3l-5 .2c0-1.8-.5-3.9-1.6-6.4a26.7 26.7 0 00-13.7-12.8l-2.5-.9 1-2.5h.1l.1-.3.3-1c.3-1 .5-2.4.5-4.2 0-3.2-.8-7.4-4-12a33.7 33.7 0 00-16.7-11.1z" fill="#4294F0"/><path d="M4.7 91h1.7V79.2h3.9V78H.8v1.3h4V91zm6.7-3.6c0 2.5.9 3.8 3 3.8 1.2 0 2.2-.7 3-1.8h.1l.2 1.5H19v-9.6h-1.6v6.8c-1 1.2-1.6 1.7-2.6 1.7-1.3 0-1.8-.8-1.8-2.6v-5.9h-1.6v6.1zM22.3 91h1.6v-6.1c.6-1.7 1.6-2.3 2.4-2.3l1 .2.3-1.4c-.4-.2-.7-.2-1-.2-1.2 0-2.1.8-2.8 2l-.2-1.8h-1.3V91zm6.8 0h1.6v-7c1-.9 1.7-1.4 2.7-1.4 1.2 0 1.8.8 1.8 2.6V91h1.6v-6c0-2.5-.9-3.8-3-3.8-1.2 0-2.2.7-3.1 1.6h-.1l-.1-1.4H29V91zm14.1-4.8c0 3.2 1.6 5 4 5 1.1 0 2.2-.6 3-1.3l.1 1.1h1.3V77H50v5.2c-.8-.7-1.5-1.1-2.6-1.1-2.2 0-4.2 2-4.2 5zm1.7 0c0-2.2 1.2-3.6 2.8-3.6a3 3 0 012.3 1v5c-.8.9-1.6 1.3-2.4 1.3-1.7 0-2.7-1.4-2.7-3.7zm9.3 0c0 3.2 2 5 4.4 5 2.4 0 4.5-1.8 4.5-5s-2.1-5-4.5-5c-2.3 0-4.4 1.8-4.4 5zm1.7 0c0-2.2 1-3.7 2.7-3.7 1.7 0 2.8 1.5 2.8 3.7s-1.1 3.7-2.8 3.7c-1.6 0-2.7-1.5-2.7-3.7zm9 0c0 3.2 2 5 4.5 5 1.1 0 2.2-.4 3.1-1.2l-.7-1c-.6.5-1.4 1-2.3 1-1.7 0-3-1.6-3-3.8 0-2.2 1.3-3.7 3-3.7.8 0 1.4.4 2 .9l.8-1a4 4 0 00-2.8-1.2C67 81 65 82.9 65 86zm9.6 1.3c0 2.5.9 3.8 3 3.8 1.2 0 2.2-.7 3-1.8h.1l.2 1.5H82v-9.6h-1.6v6.8c-1 1.2-1.6 1.7-2.6 1.7-1.3 0-1.8-.8-1.8-2.6v-5.9h-1.6v6.1zM85.4 91H87v-7c.9-1 1.7-1.4 2.4-1.4 1.2 0 1.8.8 1.8 2.6V91h1.6v-7c.9-1 1.7-1.4 2.4-1.4 1.2 0 1.8.8 1.8 2.6V91h1.6v-6c0-2.5-1-3.8-2.9-3.8-1.2 0-2.2.7-3.2 1.8-.4-1.1-1.1-1.8-2.6-1.8-1.2 0-2.2.7-3 1.6l-.2-1.4h-1.3V91zm15.6-4.8c0 3.2 2 5 4.6 5 1.3 0 2.4-.4 3.2-1l-.6-1a4 4 0 01-2.4.8c-1.8 0-3-1.3-3.2-3.4h6.5v-1c0-2.7-1.3-4.4-3.8-4.4-2.1 0-4.3 1.9-4.3 5zm1.6-.7c.2-2 1.4-3 2.8-3 1.5 0 2.4 1 2.4 3h-5.2zm9 5.5h1.6v-7c1-.9 1.6-1.4 2.6-1.4 1.3 0 1.8.8 1.8 2.6V91h1.6v-6c0-2.5-.9-3.8-2.9-3.8-1.3 0-2.3.7-3.2 1.6l-.2-1.4h-1.3V91zm11-3c0 2 .7 3.3 2.8 3.3a6 6 0 001.8-.4l-.4-1.2-1 .2c-1.1 0-1.5-.6-1.5-1.8v-5.4h2.6v-1.3h-2.6v-2.7h-1.4l-.2 2.7-1.5.1v1.2h1.4V88zm5.4 2a6 6 0 003.6 1.3c2.2 0 3.5-1.3 3.5-2.9 0-1.8-1.6-2.4-3-2.9-1-.4-2-.8-2-1.7 0-.7.5-1.3 1.7-1.3.8 0 1.5.3 2.2.8l.7-1a4.5 4.5 0 00-3-1.1c-2 0-3.3 1.2-3.3 2.7 0 1.6 1.5 2.3 3 2.8 1 .4 2.1.8 2.1 1.8 0 .8-.6 1.5-1.9 1.5-1.1 0-2-.5-2.8-1.1l-.8 1zm14-10.8c.7 0 1.2-.4 1.2-1s-.5-1-1.2-1c-.6 0-1 .4-1 1s.4 1 1 1zm-.8 11.6h1.6v-9.6h-1.6V91zm4.9 0h1.6v-7c1-.9 1.6-1.4 2.6-1.4 1.3 0 1.8.8 1.8 2.6v5.8h1.7v-6c0-2.5-1-3.8-3-3.8-1.3 0-2.3.7-3.2 1.6l-.2-1.4h-1.3V91zm11-3c0 2 .8 3.3 2.8 3.3a6 6 0 001.8-.4l-.3-1.2-1.1.2c-1.1 0-1.5-.6-1.5-1.8v-5.4h2.6v-1.3h-2.6v-2.7h-1.4l-.2 2.7-1.5.1v1.2h1.5V88zm5.6-1.8c0 3.2 2 5 4.4 5 2.4 0 4.5-1.8 4.5-5s-2.1-5-4.5-5c-2.3 0-4.4 1.8-4.4 5zm1.6 0c0-2.2 1.2-3.7 2.8-3.7 1.7 0 2.8 1.5 2.8 3.7s-1.1 3.7-2.8 3.7c-1.6 0-2.8-1.5-2.8-3.7zm13 0c0 3.2 1.7 5 4 5 1.2 0 2.2-.6 3-1.3l.2 1.1h1.3V77h-1.6v5.2c-.8-.7-1.5-1.1-2.6-1.1-2.2 0-4.2 2-4.2 5zm1.8 0c0-2.2 1.2-3.6 2.7-3.6.8 0 1.6.2 2.4 1v5c-.8.9-1.6 1.3-2.5 1.3-1.7 0-2.6-1.4-2.6-3.7zm9.5 2.3c0 1.8 1.2 2.8 2.8 2.8 1.2 0 2.3-.7 3.2-1.4l.2 1.1h1.3V85c0-2.4-1-4-3.3-4-1.6 0-3 .8-3.8 1.3l.6 1.2a5 5 0 013-1c1.5 0 1.9 1.1 1.9 2.3-4.1.5-6 1.5-6 3.6zm1.6 0c0-1.3 1-2 4.3-2.5v2.7c-1 .8-1.7 1.3-2.6 1.3-1 0-1.7-.5-1.7-1.6zm9.2-.4c0 1.9.7 3.2 2.8 3.2a6 6 0 001.8-.4l-.4-1.2-1 .2c-1.1 0-1.5-.6-1.5-1.8v-5.4h2.6v-1.3h-2.6v-2.7h-1.4l-.2 2.7-1.5.1v1.2h1.4V88zm5.6.4c0 1.8 1.2 2.8 2.8 2.8 1.2 0 2.3-.7 3.2-1.4l.2 1.1h1.3V85c0-2.4-1-4-3.3-4-1.5 0-2.9.8-3.8 1.3l.7 1.2c.7-.6 1.7-1 2.9-1 1.5 0 2 1.1 2 2.3-4.2.5-6 1.5-6 3.6zm1.6 0c0-1.3 1.1-2 4.3-2.5v2.7c-.9.8-1.7 1.3-2.6 1.3-1 0-1.7-.5-1.7-1.6z" fill="#222222"/></svg>
