<svg fill="none" xmlns="http://www.w3.org/2000/svg" viewBox="0 0 497 374" class="mastheadresponsive"><g clip-path="url(#clip0)"><path d="M0 96.6h497v162.3H0V96.6z" fill="#1368C7"/><path d="M0 0h497v96.6H0V0z" fill="#4294F0"/><text fill="#fff" style="white-space:pre" font-family="Source Sans Pro" font-size="18" letter-spacing="0em"><tspan x="96.1" y="57.2">Upload documents</tspan></text><path d="M497 258.9H0v115.3h497V258.9z" fill="#494949"/><text fill="#fff" style="white-space:pre" font-family="Source Sans Pro" font-size="18" letter-spacing="0em"><tspan x="184.4" y="311.3">Embed documents on your site and </tspan><tspan x="184.4" y="334.3">publish to our growing archive.</tspan></text><path d="M49.8 279.1h84.6v77.6H49.8v-77.6z" fill="#4294F0"/><path d="M49.7 276.3h84.7v9H49.7v-9z" fill="#1368C7"/><path fill-rule="evenodd" clip-rule="evenodd" d="M126.9 280a1.7 1.7 0 11-3.4 0 1.7 1.7 0 013.4 0zm-.3 1.7a2.2 2.2 0 11.4-.4l2.3 2.5-.3.3-2.4-2.4z" fill="#64ACFD"/><path d="M50.7 285.3H112v70.5H50.7v-70.5z" fill="#64ACFD"/><path d="M61 288.7h40.5v52.1H61v-52zm0 58.2h40.5v9H61v-9z" fill="#fff"/><path d="M65.7 278.4H54.3c-.5 0-.9.4-.9 1v3c0 .4.4.8.9.8h11.4c.5 0 .9-.4.9-.9v-3c0-.5-.4-.9-.9-.9zM80.5 278.4H69.1c-.5 0-.9.4-.9 1v3c0 .4.4.8.9.8h11.4c.5 0 .9-.4.9-.9v-3c0-.5-.4-.9-.9-.9zM95.2 278.4H83.8c-.5 0-.9.4-.9 1v3c0 .4.4.8.9.8h11.4c.5 0 .9-.4.9-.9v-3c0-.5-.4-.9-.9-.9zM114.6 291.6h16.8v2.8h-16.8v-2.8zm0 7h16.8v1.8h-16.8v-1.8zm0 3.3h16.8v1.8h-16.8V302zm0 6.2h16.8v1.8h-16.8v-1.8zm0 3.2h16.8v1.8h-16.8v-1.8zm0 3.3h16.8v1.8h-16.8v-1.8z" fill="#64ACFD"/><path d="M307.5 66.8V75c0 .3.2.6.6.6h34.3c.3 0 .6-.3.6-.6v-8.2h6.7c.4 0 .7-.3.7-.6v-16c0-.3-.3-.7-.7-.7H343v-4.8l-.2-.4-17-18.4a.6.6 0 00-.5-.2h-17.2c-.4 0-.6.3-.6.6v23.3h-6.8c-.4 0-.7.4-.7.7v16c0 .3.3.6.7.6h6.8z" fill="#fff" fill-opacity=".3"/><path d="M308.7 68v8.2c0 .3.2.5.5.5h34.3c.4 0 .6-.2.6-.5V68h6.8c.3 0 .6-.3.6-.7v-16c0-.3-.3-.6-.6-.6h-6.8V46l-.1-.4-17.1-18.4a.6.6 0 00-.5-.2h-17.2c-.3 0-.6.2-.6.6v23.1h-6.7c-.4 0-.7.3-.7.7v16c0 .3.3.6.7.6h6.7l.1.1z" fill="#fff" fill-opacity=".3"/><path d="M305.2 64.6v8c0 .4.3.6.6.6h34.3c.4 0 .6-.2.6-.6v-8h6.7c.4 0 .7-.3.7-.7V48c0-.3-.3-.6-.7-.6h-6.7v-4.8l-.1-.4-17.2-18.5a.6.6 0 00-.4-.2h-17.2c-.3 0-.6.3-.6.6v23.3h-6.7c-.4 0-.7.3-.7.6v16c0 .4.3.7.7.7h6.7z" fill="#fff" fill-opacity=".3"/><path d="M306.3 65.6V74c0 .3.3.6.6.6h34.4c.3 0 .6-.3.6-.6v-8.3h6.7c.4 0 .7-.3.7-.7V49c0-.3-.3-.6-.7-.6h-6.7v-4.7l-.2-.4-17.1-18.4a.6.6 0 00-.4-.2h-17.3c-.3 0-.6.3-.6.6v23.2h-6.6c-.4 0-.7.3-.7.7v16c0 .3.3.6.7.6h6.7-.1z" fill="#fff" fill-opacity=".3"/><path d="M303.8 70.6V22.8c0-.6.5-1 1-1h16.6c.3 0 .6 0 .8.3l3.1 3.3 9 9.8 4.8 5 .2.7v29.7c0 .6-.4 1-1 1h-33.4a1 1 0 01-1-1h-.1z" fill="#64ACFD"/><path d="M325.4 25.4l9 9.8m-9.1-9.8l-3-3.3a1 1 0 00-.9-.4h-16.5a1 1 0 00-1 1v48c0 .5.4 1 1 1h33.4c.6 0 1-.5 1-1V40.8c0-.2 0-.5-.2-.7l-4.7-5-9.1-9.8zm.1 0v8.7c0 .6.4 1 1 1h8l-9-9.7z" stroke="#fff" stroke-width="2.1"/><path d="M345.5 45.6h-47.9c-.7 0-1.2.6-1.2 1.2v15c0 .6.5 1.1 1.2 1.1h47.9c.7 0 1.2-.5 1.2-1.2V46.8c0-.6-.5-1.2-1.2-1.2z" fill="#fff"/><path d="M308.5 48.8h3.8l1.4.1 1.3.5.8 1c.2.4.3 1 .3 1.5s-.1 1-.3 1.4c-.2.4-.4.7-.8 1l-1.2.5-1.4.1h-1.7v4h-2.2V49zm2.2 4.3h2.1l.5-.3.3-.3.2-.6c0-.3 0-.5-.2-.7a1 1 0 00-.5-.3l-.6-.2h-1.8v2.4zm6.8-4.3h3.3c.8 0 1.6 0 2.3.3a5 5 0 012 .8c.4.4.9 1 1.2 1.6.3.7.5 1.4.5 2.4a4.8 4.8 0 01-1.7 3.7l-1.8 1a7 7 0 01-2.2.3h-3.6V49zm2.2 8H322.3l1.1-.6c.4-.3.6-.6.8-1a3.3 3.3 0 000-2.6c-.1-.4-.4-.7-.7-1-.4-.3-.7-.5-1.2-.6l-1.3-.2h-1.3v6zm8.7-8h6.7v2h-4.4v2h4.2V55h-4.2v4h-2.2V49h-.1z" fill="#4294F0"/><text fill="#fff" style="white-space:pre" font-family="Source Sans Pro" font-size="18" letter-spacing="0em"><tspan x="130.3" y="135.8">Extract text, places, and people.</tspan></text><text fill="#fff" style="white-space:pre" font-family="Source Sans Pro" font-size="18" letter-spacing="0em"><tspan x="149.1" y="232.6">Annotate, redact, and edit.</tspan></text><path fill-rule="evenodd" clip-rule="evenodd" d="M244.6 193.7c-2.7-3.2-5.3-6.2-3-11 3.8-7.8 14.7-11 22.5-11 7.7 0 15.4 3.2 11.7 11-2.5 5-8.1 8-13.9 11.1-5.8 3.2-11.7 6.4-14.3 11.6 2.6-5.3-.2-8.5-3-11.7zm12.7-8.2c3.7 0 7.7-1.9 8.9-4.3 1.1-2.3-1-4.2-4.7-4.2s-7.7 2-8.8 4.2c-1.2 2.4.9 4.3 4.6 4.3z" fill="#000" fill-opacity=".1"/><path fill-rule="evenodd" clip-rule="evenodd" d="M239.3 187.6c-4.2-4.7-8.4-9.3-8.4-16.5 0-11.7 9.3-16.6 17.1-16.6 7.8 0 17 5 17 16.6 0 7.2-4 11.8-8.3 16.5-4.3 5-8.7 10-8.7 17.8 0-8-4.4-12.9-8.7-17.8zm8.7-12.2c3.7 0 6.7-3 6.7-6.5 0-3.6-3-6.5-6.7-6.5a6.6 6.6 0 00-6.7 6.5c0 3.6 3 6.5 6.7 6.5zm58 18.3c8.7 0 15.7-6.8 15.7-15.2 0-8.4-7-15.2-15.8-15.2-8.7 0-15.8 6.8-15.8 15.2 0 8.4 7 15.2 15.8 15.2h.1zm7-21.4c.8 0 2 0 3.3.2a3 3 0 012.8 3.6 3 3 0 01-.8 1.5l-1.1 1.1c-1 .5-6.5.2-7.5 0-.6 0-1.5-1.2-2.3-2.4l-.2-.5c-.3-.8-.7-2-1.6-2-.6 0-.9.8-.9 1.4 0 .4 0 .7-.3 1.1-.7 1.2-1.7 2.3-2.3 2.4-1 .2-6.4.5-7.4 0-.3 0-.7-.5-1.2-1a3 3 0 012-5.2l3.4-.2c1 0 2.3.2 3.6.5l2 .2a10 10 0 012.5 0c.8 0 1.6 0 2.3-.2a18 18 0 013.6-.5h.1zM182.3 194.8s-3.4 0-3.5-.4c-.2-.4-.3-.5 0-.9l1.4-.8 1.8-1c4.7-7.4 9.3-14.9 13.7-22.5.8-1.2 2.5-2.8 3.4-2.8 1 0 1.6 1.2 1.8 2l1.8 12.3.2 1.6.2 1.6c.3 2.7.9 7 1.2 7.6.1.3.6.6 1 1 .6.3 1.2.7 1.2 1 .1.8-.9 1.3-2.2 1.3h-5.5c-.8 0-1.6-.2-1.6-.7 0-.4.3-.6.7-.9.3-.2.6-.5.7-.8.3-.7.9-3.3.6-5.2-.3-1.9-1.3-2.4-4.2-2.4-2.9 0-5.7.1-6.6 1.3-.9 1.2-1.5 2.5-1.8 3.3l-.2.5c-.3.6-.6 1.4-.5 2 0 .3.3.5.5.7.4.3.8.7.8 1.5 0 .7-5 .7-5 .7h.1zm9.2-13.4l-.5 1h7.3c.4 0 .5-.3.4-.6v-.2a40 40 0 00-1.4-9.7c0-.3-.2 0-.4.2l-4.6 8-.8 1.3z" fill="#fff"/></g><defs><clipPath id="clip0"><path fill="#fff" d="M0 0h497v374H0z"/></clipPath></defs></svg>
