<svg width="330" height="99" viewBox="0 0 330 99" fill="none" xmlns="http://www.w3.org/2000/svg">
<path d="M9.54385 35.8256H4.7266V52.4407H9.54385C14.6748 52.4407 18.0255 48.9851 18.0255 44.1686C18.0255 39.3513 14.6748 35.8256 9.54385 35.8256V35.8256ZM9.54385 56.3501H0.43335V31.9169H9.54385C17.2225 31.9169 22.5284 37.1866 22.5284 44.0977C22.5284 51.0096 17.2225 56.3501 9.54385 56.3501Z" fill="#4E4E4E"/>
<path d="M36.0001 41.237C32.6146 41.237 30.4507 43.8896 30.4507 47.137C30.4507 50.4176 32.7895 53.1049 36.0702 53.1049C39.491 53.1049 41.655 50.4523 41.655 47.2056C41.655 43.925 39.3161 41.237 36.0001 41.237V41.237ZM36.0001 56.77C30.3806 56.77 26.2268 52.4768 26.2268 47.2056C26.2268 41.9005 30.4152 37.5372 36.0702 37.5372C41.7251 37.5372 45.8789 41.8304 45.8789 47.137C45.8789 52.4067 41.6897 56.77 36.0001 56.77" fill="#4E4E4E"/>
<path d="M58.6877 56.77C53.2076 56.77 49.1587 52.4768 49.1587 47.2056C49.1587 41.9345 53.2076 37.5372 58.7223 37.5372C62.2133 37.5372 64.3773 38.828 66.0874 40.7137L63.4695 43.5412C62.1786 42.1788 60.8169 41.237 58.6877 41.237C55.6159 41.237 53.3818 43.8896 53.3818 47.137C53.3818 50.4523 55.6506 53.1049 58.8973 53.1049C60.8871 53.1049 62.3528 52.1624 63.6791 50.8014L66.2276 53.3137C64.412 55.3382 62.2827 56.77 58.6877 56.77" fill="#4E4E4E"/>
<path d="M82.2126 37.9209H86.4365V56.3501H82.2126V53.4887C81.0266 55.2334 79.3158 56.7339 76.4536 56.7339C72.2999 56.7339 69.8916 53.9418 69.8916 49.6486V37.9209H74.1147V48.3924C74.1147 51.2539 75.5458 52.8938 78.0596 52.8938C80.5026 52.8938 82.2126 51.1845 82.2126 48.3216V37.9209" fill="#4E4E4E"/>
<path d="M113.313 37.5365C117.326 37.5365 119.77 40.0849 119.77 44.5878V56.3501H115.547V45.8779C115.547 42.9464 114.185 41.3765 111.812 41.3765C109.508 41.3765 107.867 42.9811 107.867 45.9487V56.3501H103.644V45.8439C103.644 42.9811 102.248 41.3765 99.909 41.3765C97.5701 41.3765 95.9648 43.1213 95.9648 45.9842V56.3501H91.741V37.921H95.9648V40.713C97.1509 39.0716 98.7569 37.5365 101.584 37.5365C104.237 37.5365 106.087 38.8273 107.064 40.7824C108.566 38.8273 110.52 37.5365 113.313 37.5365Z" fill="#4E4E4E"/>
<path d="M137.535 45.8447C137.255 43.122 135.649 40.9934 132.857 40.9934C130.274 40.9934 128.459 42.9818 128.075 45.8447H137.535ZM133.416 53.3137C135.475 53.3137 136.941 52.5462 138.407 51.1144L140.886 53.3137C139.141 55.409 136.732 56.77 133.346 56.77C128.006 56.77 123.887 52.8945 123.887 47.1702C123.887 41.8658 127.622 37.5372 132.892 37.5372C138.756 37.5372 141.723 42.1448 141.723 47.4853C141.723 47.8691 141.689 48.2182 141.653 48.6374H128.11C128.599 51.6384 130.693 53.3137 133.416 53.3137" fill="#4E4E4E"/>
<path d="M150.203 56.3501H145.979V37.921H150.203V40.7824C151.391 39.0369 153.101 37.5365 155.963 37.5365C160.117 37.5365 162.525 40.3292 162.525 44.6217V56.3501H158.301V45.8779C158.301 43.0165 156.871 41.3765 154.357 41.3765C151.913 41.3765 150.203 43.0859 150.203 45.9487V56.3501" fill="#4E4E4E"/>
<path d="M172.717 50.5914C172.717 52.2328 173.554 52.8949 174.985 52.8949C175.927 52.8949 176.765 52.686 177.603 52.2668V55.7223C176.555 56.3171 175.369 56.6655 173.799 56.6655C170.692 56.6655 168.493 55.3045 168.493 51.2549V41.551H166.154V37.922H168.493V32.8597H172.717V37.922H177.673V41.551H172.717V50.5914" fill="#4E4E4E"/>
<path d="M193.763 56.77C186.642 56.77 181.336 51.2206 181.336 44.1693C181.336 37.1873 186.537 31.4984 193.937 31.4984C198.44 31.4984 201.163 33.0697 203.501 35.3024L200.744 38.4789C198.789 36.664 196.695 35.4426 193.902 35.4426C189.225 35.4426 185.839 39.2819 185.839 44.0984C185.839 48.9164 189.225 52.8259 193.902 52.8259C196.904 52.8259 198.825 51.6044 200.918 49.6493L203.676 52.4414C201.128 55.0939 198.335 56.77 193.763 56.77" fill="#4E4E4E"/>
<path d="M207.933 56.3501V30.8696H212.156V56.3501H207.933Z" fill="#4E4E4E"/>
<path d="M226.432 41.237C223.046 41.237 220.882 43.8896 220.882 47.137C220.882 50.4176 223.22 53.1049 226.502 53.1049C229.922 53.1049 232.087 50.4523 232.087 47.2056C232.087 43.925 229.748 41.237 226.432 41.237V41.237ZM226.432 56.77C220.812 56.77 216.658 52.4768 216.658 47.2056C216.658 41.9005 220.847 37.5372 226.502 37.5372C232.156 37.5372 236.31 41.8304 236.31 47.137C236.31 52.4067 232.121 56.77 226.432 56.77" fill="#4E4E4E"/>
<path d="M252.714 37.9209H256.937V56.3501H252.714V53.4887C251.527 55.2334 249.816 56.7339 246.955 56.7339C242.801 56.7339 240.392 53.9418 240.392 49.6486V37.9209H244.616V48.3924C244.616 51.2539 246.047 52.8938 248.56 52.8938C251.003 52.8938 252.714 51.1845 252.714 48.3216V37.9209" fill="#4E4E4E"/>
<path d="M270.864 41.2016C267.967 41.2016 265.558 43.4357 265.558 47.1362C265.558 50.7653 268.002 53.0695 270.864 53.0695C273.691 53.0695 276.204 50.7298 276.204 47.1362C276.204 43.5405 273.691 41.2016 270.864 41.2016ZM276.135 56.3501V53.2783C274.773 55.198 272.853 56.7339 269.851 56.7339C265.523 56.7339 261.299 53.2783 261.299 47.1362C261.299 40.9927 265.453 37.5364 269.851 37.5364C272.888 37.5364 274.809 39.0716 276.135 40.7824V30.8696H280.358V56.3501H276.135" fill="#4E4E4E"/>
<path d="M287.65 6.67713C285.394 6.03242 282.743 5.77368 280.172 5.61539C279.382 5.56696 278.62 5.54383 277.884 5.54383C270.009 5.56046 265.225 8.13713 262.221 10.7131C259.229 13.2919 258.079 15.9727 258.035 16.0883L256.523 19.9428L253.784 16.8226C253.783 16.8226 253.773 16.8111 253.725 16.7576C253.674 16.7027 253.596 16.6181 253.49 16.5053C253.276 16.2827 252.951 15.9503 252.525 15.5441C251.671 14.7309 250.412 13.6186 248.835 12.4636C245.684 10.1457 241.273 7.69986 236.37 6.99443C235.108 6.81013 233.926 6.72918 232.815 6.72918C224.172 6.7169 219.675 11.6816 219.309 12.0892L219.301 12.0979L217.584 14.1946L215.61 12.3379C215.609 12.3379 215.609 12.3364 215.567 12.2981C215.524 12.2605 215.454 12.1984 215.357 12.116C215.164 11.9526 214.866 11.7069 214.47 11.4062C213.678 10.8056 212.496 9.99103 211.001 9.17719C208.008 7.54518 203.789 5.9428 198.867 5.94425C198.594 5.94425 198.317 5.95075 198.031 5.9616C195.296 6.06278 193.225 6.6092 191.609 7.34281L189.513 2.73732C191.766 1.71027 194.527 1.02509 197.845 0.906558C198.187 0.892103 198.528 0.886322 198.867 0.886322C207.596 0.926075 214.145 4.87456 217.192 7.12598C219.727 4.98876 224.925 1.68209 232.815 1.66908C234.17 1.66908 235.601 1.76737 237.101 1.98782C245.401 3.25555 251.822 8.07786 255.124 11.0593C255.932 9.90864 257.05 8.5585 258.551 7.20403C262.309 3.79329 268.571 0.465668 277.884 0.484459C278.725 0.484459 279.593 0.510485 280.486 0.566138C283.264 0.739603 286.172 1.0858 288.894 1.7746C289.116 1.88157 301.261 4.86009 308.399 14.8798C312.295 20.4126 313.383 25.7756 313.374 29.8209C313.371 31.9278 313.091 33.6805 312.786 34.9685C316.301 36.7385 323.158 41.0563 327.058 49.4303C328.449 52.4486 329.081 55.2226 329.18 57.6973V57.6988L324.125 57.9033C324.052 56.1304 323.606 54.0336 322.462 51.5451C318.487 42.7787 309.794 39.0716 308.906 38.7514C308.85 38.7297 308.848 38.7283 308.848 38.7283L306.301 37.8039L307.393 35.3392H307.391C307.391 35.3392 307.391 35.3392 307.392 35.3392C307.395 35.3342 307.401 35.3197 307.409 35.2966C307.429 35.2489 307.46 35.1665 307.501 35.0487C307.583 34.8159 307.701 34.4473 307.822 33.9631C308.065 32.9946 308.316 31.5657 308.313 29.8209C308.304 26.6393 307.518 22.44 304.259 17.7875C299.323 10.6647 289.745 7.27558 287.65 6.67713Z" fill="#4294F0"/>
<path d="M4.72713 90.9302H6.36762V79.348H10.3008V77.9644H0.793926V79.348H4.72713V90.9302ZM11.3751 87.412C11.3751 89.8629 12.2843 91.1674 14.32 91.1674C15.6443 91.1674 16.593 90.4756 17.4824 89.428H17.5417L17.6801 90.9302H19.0241V81.3245H17.4034V88.1433C16.4942 89.2699 15.8024 89.764 14.8142 89.764C13.5492 89.764 13.0156 88.9932 13.0156 87.1946V81.3245H11.3751V87.412ZM22.2644 90.9302H23.8852V84.7635C24.5374 83.1428 25.5059 82.5499 26.3162 82.5499C26.7115 82.5499 26.9289 82.6092 27.2452 82.708L27.5614 81.2849C27.2452 81.1466 26.9487 81.0873 26.5336 81.0873C25.4466 81.0873 24.4583 81.8581 23.8061 83.0638H23.7468L23.6084 81.3245H22.2644V90.9302ZM29.1165 90.9302H30.7372V83.9729C31.7057 83.0045 32.3777 82.4906 33.366 82.4906C34.6309 82.4906 35.1843 83.2614 35.1843 85.06V90.9302H36.805V84.8426C36.805 82.3918 35.8959 81.0873 33.8798 81.0873C32.5556 81.0873 31.5674 81.7988 30.6582 82.708H30.5989L30.4605 81.3245H29.1165V90.9302ZM43.2291 86.1471C43.2291 89.349 44.7905 91.1674 47.2018 91.1674C48.3284 91.1674 49.3562 90.5349 50.1073 89.8036H50.1666L50.3049 90.9302H51.6489V76.8576H50.0084V80.5536L50.0875 82.1941C49.2376 81.5023 48.5063 81.0873 47.3995 81.0873C45.2056 81.0873 43.2291 83.0242 43.2291 86.1471ZM44.9091 86.1273C44.9091 83.9334 46.1345 82.451 47.6762 82.451C48.4668 82.451 49.1981 82.7278 50.0084 83.4591V88.4793C49.2178 89.3688 48.447 89.8036 47.5576 89.8036C45.8776 89.8036 44.9091 88.42 44.9091 86.1273ZM54.1726 86.1471C54.1726 89.3292 56.2677 91.1674 58.6197 91.1674C60.9718 91.1674 63.0668 89.3292 63.0668 86.1471C63.0668 82.9254 60.9718 81.0873 58.6197 81.0873C56.2677 81.0873 54.1726 82.9254 54.1726 86.1471ZM55.8527 86.1471C55.8527 83.9334 56.9793 82.4313 58.6197 82.4313C60.28 82.4313 61.3868 83.9334 61.3868 86.1471C61.3868 88.341 60.28 89.8233 58.6197 89.8233C56.9793 89.8233 55.8527 88.341 55.8527 86.1471ZM64.885 86.1471C64.885 89.3292 66.8418 91.1674 69.3914 91.1674C70.5378 91.1674 71.6446 90.693 72.5143 89.9222L71.783 88.8549C71.2098 89.3688 70.439 89.8233 69.5298 89.8233C67.7707 89.8233 66.5651 88.341 66.5651 86.1471C66.5651 83.9334 67.83 82.4313 69.5693 82.4313C70.3401 82.4313 70.9331 82.7871 71.5063 83.2812L72.3166 82.2336C71.6644 81.6209 70.775 81.0873 69.51 81.0873C67.0394 81.0873 64.885 82.9254 64.885 86.1471ZM74.4721 87.412C74.4721 89.8629 75.3813 91.1674 77.417 91.1674C78.7413 91.1674 79.69 90.4756 80.5794 89.428H80.6387L80.7771 90.9302H82.1211V81.3245H80.5004V88.1433C79.5912 89.2699 78.8994 89.764 77.9112 89.764C76.6462 89.764 76.1126 88.9932 76.1126 87.1946V81.3245H74.4721V87.412ZM85.3614 90.9302H86.9822V83.9729C87.8716 82.9847 88.6819 82.4906 89.3935 82.4906C90.6189 82.4906 91.1921 83.2614 91.1921 85.06V90.9302H92.8128V83.9729C93.7022 82.9847 94.473 82.4906 95.2241 82.4906C96.4298 82.4906 97.0029 83.2614 97.0029 85.06V90.9302H98.6237V84.8426C98.6237 82.3918 97.675 81.0873 95.6985 81.0873C94.5323 81.0873 93.5441 81.8383 92.5361 82.9254C92.1408 81.779 91.3502 81.0873 89.8876 81.0873C88.7412 81.0873 87.7332 81.7988 86.9031 82.708H86.8438L86.7055 81.3245H85.3614V90.9302ZM101.037 86.1471C101.037 89.2897 103.073 91.1674 105.642 91.1674C106.947 91.1674 107.974 90.7128 108.805 90.1791L108.231 89.1118C107.52 89.5664 106.749 89.8629 105.84 89.8629C104.002 89.8629 102.757 88.5584 102.638 86.4831H109.121C109.16 86.2459 109.18 85.9297 109.18 85.5937C109.18 82.8463 107.797 81.0873 105.346 81.0873C103.152 81.0873 101.037 83.0045 101.037 86.1471ZM102.618 85.4158C102.816 83.4788 104.041 82.372 105.385 82.372C106.887 82.372 107.757 83.4591 107.757 85.4158H102.618ZM111.554 90.9302H113.174V83.9729C114.143 83.0045 114.815 82.4906 115.803 82.4906C117.068 82.4906 117.622 83.2614 117.622 85.06V90.9302H119.242V84.8426C119.242 82.3918 118.333 81.0873 116.317 81.0873C114.993 81.0873 114.005 81.7988 113.095 82.708H113.036L112.898 81.3245H111.554V90.9302ZM122.639 87.9654C122.639 89.8629 123.331 91.1674 125.387 91.1674C125.98 91.1674 126.632 90.9895 127.166 90.8116L126.849 89.5862C126.533 89.7048 126.098 89.8431 125.762 89.8431C124.655 89.8431 124.28 89.1711 124.28 87.9852V82.6487H126.869V81.3245H124.28V78.6364H122.916L122.718 81.3245L121.216 81.4233V82.6487H122.639V87.9654ZM127.974 89.8431C128.883 90.5942 130.187 91.1674 131.551 91.1674C133.824 91.1674 135.069 89.8629 135.069 88.3014C135.069 86.4831 133.528 85.9099 132.144 85.396C131.057 84.981 130.009 84.6252 130.009 83.7358C130.009 83.0045 130.563 82.3522 131.769 82.3522C132.618 82.3522 133.31 82.708 133.962 83.2021L134.733 82.1743C134.002 81.5814 132.954 81.0873 131.749 81.0873C129.673 81.0873 128.448 82.2732 128.448 83.8148C128.448 85.4355 129.95 86.0878 131.314 86.5819C132.362 86.9772 133.508 87.412 133.508 88.4003C133.508 89.2304 132.875 89.9024 131.61 89.9024C130.464 89.9024 129.614 89.428 128.784 88.756L127.974 89.8431ZM142.147 79.348C142.779 79.348 143.274 78.9131 143.274 78.3004C143.274 77.668 142.779 77.2529 142.147 77.2529C141.514 77.2529 141.02 77.668 141.02 78.3004C141.02 78.9131 141.514 79.348 142.147 79.348ZM141.317 90.9302H142.938V81.3245H141.317V90.9302ZM146.181 90.9302H147.802V83.9729C148.77 83.0045 149.442 82.4906 150.43 82.4906C151.695 82.4906 152.249 83.2614 152.249 85.06V90.9302H153.869V84.8426C153.869 82.3918 152.96 81.0873 150.944 81.0873C149.62 81.0873 148.632 81.7988 147.723 82.708H147.663L147.525 81.3245H146.181V90.9302ZM157.266 87.9654C157.266 89.8629 157.958 91.1674 160.014 91.1674C160.607 91.1674 161.259 90.9895 161.793 90.8116L161.476 89.5862C161.16 89.7048 160.725 89.8431 160.389 89.8431C159.282 89.8431 158.907 89.1711 158.907 87.9852V82.6487H161.496V81.3245H158.907V78.6364H157.543L157.346 81.3245L155.843 81.4233V82.6487H157.266V87.9654ZM162.764 86.1471C162.764 89.3292 164.859 91.1674 167.211 91.1674C169.563 91.1674 171.658 89.3292 171.658 86.1471C171.658 82.9254 169.563 81.0873 167.211 81.0873C164.859 81.0873 162.764 82.9254 162.764 86.1471ZM164.444 86.1471C164.444 83.9334 165.57 82.4313 167.211 82.4313C168.871 82.4313 169.978 83.9334 169.978 86.1471C169.978 88.341 168.871 89.8233 167.211 89.8233C165.57 89.8233 164.444 88.341 164.444 86.1471ZM177.491 86.1471C177.491 89.349 179.053 91.1674 181.464 91.1674C182.591 91.1674 183.618 90.5349 184.369 89.8036H184.429L184.567 90.9302H185.911V76.8576H184.271V80.5536L184.35 82.1941C183.5 81.5023 182.768 81.0873 181.662 81.0873C179.468 81.0873 177.491 83.0242 177.491 86.1471ZM179.171 86.1273C179.171 83.9334 180.397 82.451 181.938 82.451C182.729 82.451 183.46 82.7278 184.271 83.4591V88.4793C183.48 89.3688 182.709 89.8036 181.82 89.8036C180.14 89.8036 179.171 88.42 179.171 86.1273ZM188.672 88.4398C188.672 90.1593 189.878 91.1674 191.498 91.1674C192.684 91.1674 193.751 90.5349 194.68 89.7838H194.72L194.858 90.9302H196.202V85.0402C196.202 82.6487 195.214 81.0873 192.862 81.0873C191.32 81.0873 189.976 81.7593 189.087 82.3325L189.739 83.4591C190.49 82.9452 191.479 82.4313 192.605 82.4313C194.167 82.4313 194.582 83.6172 194.582 84.8426C190.49 85.2972 188.672 86.3447 188.672 88.4398ZM190.273 88.3212C190.273 87.0958 191.36 86.3052 194.582 85.9099V88.5782C193.653 89.4083 192.882 89.8629 191.953 89.8629C191.004 89.8629 190.273 89.4083 190.273 88.3212ZM199.537 87.9654C199.537 89.8629 200.229 91.1674 202.284 91.1674C202.877 91.1674 203.53 90.9895 204.063 90.8116L203.747 89.5862C203.431 89.7048 202.996 89.8431 202.66 89.8431C201.553 89.8431 201.178 89.1711 201.178 87.9852V82.6487H203.767V81.3245H201.178V78.6364H199.814L199.616 81.3245L198.114 81.4233V82.6487H199.537V87.9654ZM205.117 88.4398C205.117 90.1593 206.323 91.1674 207.943 91.1674C209.129 91.1674 210.196 90.5349 211.125 89.7838H211.165L211.303 90.9302H212.647V85.0402C212.647 82.6487 211.659 81.0873 209.307 81.0873C207.765 81.0873 206.421 81.7593 205.532 82.3325L206.184 83.4591C206.935 82.9452 207.924 82.4313 209.05 82.4313C210.612 82.4313 211.027 83.6172 211.027 84.8426C206.935 85.2972 205.117 86.3447 205.117 88.4398ZM206.718 88.3212C206.718 87.0958 207.805 86.3052 211.027 85.9099V88.5782C210.098 89.4083 209.327 89.8629 208.398 89.8629C207.449 89.8629 206.718 89.4083 206.718 88.3212Z" fill="#4E4E4E"/>
</svg>
