<svg fill="none" xmlns="http://www.w3.org/2000/svg" viewBox="0 0 22 17"><circle cx="16.23" cy="3.28" r="3.13" fill="#787878"/><path d="M21.09 8.27c0 2.06-2.18 3.72-4.86 3.72-2.69 0-4.86-1.66-4.86-3.72 0-2.06 2.18-1.23 4.86-1.23s4.86-.83 4.86 1.23z" fill="#787878"/><circle cx="5.71" cy="3.28" r="3.13" fill="#787878"/><path d="M10.57 8.27c0 2.06-2.18 3.72-4.86 3.72S.85 10.33.85 8.27c0-2.06 2.18-1.23 4.86-1.23s4.86-.83 4.86 1.23z" fill="#787878"/><circle cx="10.97" cy="5.18" r="4.3" fill="#787878" stroke="#fff"/><path d="M10.97 16.25c1.73 0 3.31-.54 4.48-1.43a4.57 4.57 0 001.92-3.6c0-.7-.19-1.28-.64-1.66-.42-.37-1-.49-1.56-.52-.57-.03-1.25.02-1.94.07h-.06c-.7.06-1.43.12-2.2.12a27.77 27.77 0 01-2.26-.12c-.7-.05-1.37-.1-1.94-.07-.57.03-1.14.15-1.56.52-.45.38-.64.95-.64 1.66 0 1.44.76 2.71 1.92 3.6a7.38 7.38 0 004.48 1.43z" fill="#787878" stroke="#fff"/></svg>
