<svg height="12" fill="none" xmlns="http://www.w3.org/2000/svg" viewBox="0 0 18 18"><circle cx="9.15" cy="9.05" r="7.95" stroke="#787878" stroke-width="1.5"/><path d="M12.23 9.05c0 2.25-.42 4.25-1.06 5.66-.67 1.49-1.44 2.04-2.02 2.04-.57 0-1.35-.55-2.02-2.04a14.2 14.2 0 01-1.05-5.66c0-2.26.42-4.26 1.05-5.67.67-1.48 1.45-2.04 2.02-2.04.58 0 1.35.56 2.02 2.04a14.2 14.2 0 011.06 5.67z" stroke="#787878" stroke-width="1.5"/><path d="M15.26 4.1c0 1.44-2.74 2.62-6.1 2.62-3.38 0-6.1-1.18-6.1-2.62M15.26 14c0-1.45-2.74-2.63-6.1-2.63-3.38 0-6.1 1.18-6.1 2.62" stroke="#787878" stroke-width="1.5"/></svg>
