<svg width="19" height="19" viewBox="0 0 19 19" fill="none" xmlns="http://www.w3.org/2000/svg">
<path fill-rule="evenodd" clip-rule="evenodd" d="M11.2059 6.35294C11.2059 9.03315 9.03315 11.2059 6.35294 11.2059C3.67274 11.2059 1.5 9.03315 1.5 6.35294C1.5 3.67274 3.67274 1.5 6.35294 1.5C9.03315 1.5 11.2059 3.67274 11.2059 6.35294ZM10.3167 11.318C9.23011 12.1866 7.85217 12.7059 6.35294 12.7059C2.84431 12.7059 0 9.86158 0 6.35294C0 2.84431 2.84431 0 6.35294 0C9.86158 0 12.7059 2.84431 12.7059 6.35294C12.7059 7.82182 12.2074 9.17426 11.3703 10.2503L18.2904 17.1704L17.2298 18.2311L10.3167 11.318Z" fill="black" fill-opacity="0.76"/>
</svg>
