<svg fill="none" xmlns="http://www.w3.org/2000/svg" width="46" height="46" viewBox="0 0 46 46"><path d="M40.3 46H5.8A5.8 5.8 0 010 40.2V5.8C0 2.6 2.6 0 5.8 0h34.5C43.4 0 46 2.6 46 5.8v34.5c0 3.1-2.6 5.7-5.8 5.7z" fill="#1DA1F2"/><path d="M17.7 34.7c10.8 0 16.7-9 16.7-16.8v-.8a12 12 0 003-3c-1 .5-2.2.8-3.4 1a6 6 0 002.6-3.3c-1.2.6-2.4 1.1-3.8 1.4a5.9 5.9 0 00-10 5.4c-5-.3-9.3-2.6-12.2-6.2a5.9 5.9 0 001.9 7.9 6 6 0 01-2.7-.8v.1a6 6 0 004.7 5.8 5.7 5.7 0 01-2.6.1c.7 2.4 2.9 4 5.5 4.1a11.8 11.8 0 01-8.8 2.5c2.6 1.6 5.7 2.6 9 2.6z" fill="#fff"/></svg>
